<?xml version="1.0" encoding="UTF-8"?>
<!DOCTYPE svg PUBLIC "-//W3C//DTD SVG 1.0//EN" "http://www.w3.org/TR/2001/REC-SVG-20010904/DTD/svg10.dtd">
<!-- Creator: CorelDRAW -->
<svg xmlns="http://www.w3.org/2000/svg" xml:space="preserve" width="0.390323in" height="0.472441in" version="1.0" style="shape-rendering:geometricPrecision; text-rendering:geometricPrecision; image-rendering:optimizeQuality; fill-rule:evenodd; clip-rule:evenodd"
viewBox="0 0 94.3 114.14"
 xmlns:xlink="http://www.w3.org/1999/xlink"
 xmlns:xodm="http://www.corel.com/coreldraw/odm/2003">
 <defs>
  <style type="text/css">
   <![CDATA[
    .fil0 {fill:currentColor}
   ]]>
  </style>
 </defs>
 <g id="Layer_x0020_1">
  <metadata id="CorelCorpID_0Corel-Layer"/>
  <path class="fil0" d="M47.15 0c5.2,0 9.46,4.26 9.46,9.46l0 3.28c-3.02,-0.81 -6.19,-1.25 -9.46,-1.25 -3.27,0 -6.44,0.44 -9.46,1.25l0 -3.28c0,-5.2 4.26,-9.46 9.46,-9.46zm14.97 104.27c-2.49,5.81 -8.25,9.88 -14.97,9.88 -6.72,0 -12.48,-4.07 -14.97,-9.88l29.94 0zm-55.41 -3.98c-3.47,0 -6.65,-3.59 -6.71,-7.07 -0.07,-3.88 1.83,-5.26 4.42,-8.02 4.97,-5.3 10.11,-16.82 10.11,-21.14l0 -15.99c0,-17.94 14.68,-32.62 32.62,-32.62 17.94,0 32.62,14.68 32.62,32.62l0 15.99c0,4.32 5.14,15.84 10.11,21.14 2.59,2.76 4.49,4.14 4.42,8.02 -0.06,3.47 -3.24,7.07 -6.71,7.07l-80.88 0z"/>
 </g>
</svg>
