<?xml version="1.0" encoding="UTF-8"?>
<!DOCTYPE svg PUBLIC "-//W3C//DTD SVG 1.0//EN" "http://www.w3.org/TR/2001/REC-SVG-20010904/DTD/svg10.dtd">
<!-- Creator: CorelDRAW -->
<svg xmlns="http://www.w3.org/2000/svg" xml:space="preserve" width="5.69444in" height="7.12369in" version="1.0" style="shape-rendering:geometricPrecision; text-rendering:geometricPrecision; image-rendering:optimizeQuality; fill-rule:evenodd; clip-rule:evenodd"
viewBox="0 0 4755.26 5948.77"
 xmlns:xlink="http://www.w3.org/1999/xlink"
 xmlns:xodm="http://www.corel.com/coreldraw/odm/2003">
 <defs>
  <style type="text/css">
   <![CDATA[
    .fil1 {fill:currentColor;fill-rule:nonzero}
    .fil0 {fill:currentColor;fill-rule:nonzero}
    .fil2 {fill:#ffffff;fill-rule:nonzero}
   ]]>
  </style>
 </defs>
 <g id="Layer_x0020_1">
  <metadata id="CorelCorpID_0Corel-Layer"/>
  <path class="fil0" d="M4639.28 3392.47l0 -3044.52c0,-64.06 -25.96,-122.06 -67.94,-164.03 -41.97,-41.97 -99.97,-67.93 -164.03,-67.93l-4059.36 0c-64.06,0 -122.06,25.96 -164.03,67.93 -41.97,41.97 -67.94,99.97 -67.94,164.03l0 5219.18c0,64.06 25.96,122.06 67.93,164.03 41.97,41.97 99.97,67.93 164.03,67.93l1594.75 0 0 115.98 -1594.75 0c-96.08,0 -183.07,-38.95 -246.03,-101.91 -62.97,-62.97 -101.91,-149.95 -101.91,-246.03l0 -5219.18c0,-96.07 38.95,-183.06 101.92,-246.03 62.97,-62.97 149.96,-101.91 246.03,-101.91l4059.36 0c96.08,0 183.06,38.95 246.03,101.91 62.97,62.97 101.92,149.96 101.92,246.03l0 3044.52 -115.98 0zm-3276.49 -2232.65l2029.68 0 0 115.98 -2029.68 0 0 -115.98zm0 1159.82l2029.68 0 0 115.98 -2029.68 0 0 -115.98zm0 1159.82l869.87 0 0 115.98 -869.87 0 0 -115.98z"/>
  <path class="fil1" d="M4183.58 5171.15c50.35,-98.71 78.75,-210.5 78.75,-328.91 0,-400.34 -324.55,-724.89 -724.89,-724.89 -400.34,0 -724.89,324.55 -724.89,724.89 0,400.34 324.55,724.89 724.89,724.89 112.69,0 219.37,-25.71 314.5,-71.59l385.31 385.31c90.58,90.58 237.44,90.58 328.01,0 90.58,-90.58 90.58,-237.44 0,-328.01l-381.68 -381.68z"/>
  <path class="fil2" d="M3982.35 4842.24c0,122.86 -49.8,234.08 -130.31,314.59 -80.51,80.52 -191.74,130.31 -314.59,130.31 -245.71,0 -444.91,-199.19 -444.91,-444.91 0,-245.71 199.19,-444.91 444.91,-444.91 245.71,0 444.91,199.19 444.91,444.91z"/>
 </g>
</svg>
