<svg id="레이어_3" data-name="레이어 3" xmlns="http://www.w3.org/2000/svg" viewBox="0 0 654.65 99.31"><defs><style>.cls-1{fill:currentColor;}.cls-2{fill:currentColor;}</style></defs><polygon class="cls-1" points="537.76 31.79 552.32 31.79 552.32 25.23 523.35 25.23 523.35 9.62 552.05 9.62 552.05 3.04 516.09 3.04 516.09 31.79 530.49 31.79 530.49 43.97 513.73 43.97 513.73 50.52 554.41 50.52 554.41 43.97 537.76 43.97 537.76 31.79"/><polygon class="cls-1" points="593.75 19.55 584.24 19.55 584.24 26.11 593.75 26.11 593.75 52.31 601.03 52.31 601.03 1.59 593.75 1.59 593.75 19.55"/><path class="cls-1" d="M658,47.32a20.23,20.23,0,0,1-1-6.64V20.37h-7.24V40.7a31.41,31.41,0,0,1-1.25,8q-2.18,6-9.37,9.78c-.42.26-.88.49-1.32.71l-1.42.65,3.35,6,1.24-.63A31.91,31.91,0,0,0,653.78,54c.17.24.32.44.42.62a34.71,34.71,0,0,0,12.31,10.49l1.18.63,3.53-5.54-1.34-.74C663.56,55.9,659.57,51.85,658,47.32Z" transform="translate(-79.57 -17.9)"/><polygon class="cls-1" points="617.88 34.74 610.6 34.74 610.6 52.31 648.61 52.31 648.61 45.77 617.88 45.77 617.88 34.74"/><path class="cls-1" d="M727.33,34.92V19.49H720V43.56a26.81,26.81,0,0,1-5.73.53h-.22V44a43.15,43.15,0,0,0,2.25-14.17v-8.9H689.25v6.58h19.84v4.65a37.37,37.37,0,0,1-1.76,10l-.41,1.48,1.9.44h-6.35V32.72H695.2V44.09h-8.34v6.56H716a28.16,28.16,0,0,0,4-.34v9.4h7.3V41.48h6.89V34.92Z" transform="translate(-79.57 -17.9)"/><path class="cls-1" d="M629.5,97.16h1.59v16h9.24v1.55h-10.8Z" transform="translate(-79.57 -17.9)"/><polygon class="cls-1" points="561.55 97.64 549.09 97.64 549.09 78.42 552.39 78.42 552.39 94.39 561.55 94.39 561.55 97.64 561.55 97.64"/><path class="cls-1" d="M643.64,97.25h1.59v17.43h-1.59Z" transform="translate(-79.57 -17.9)"/><polygon class="cls-1" points="566.5 97.64 563.22 97.64 563.22 78.53 566.5 78.53 566.5 97.64 566.5 97.64"/><path class="cls-1" d="M649.6,97.29h6.51c3.54,0,5.29,1.47,5.29,4.44a3.55,3.55,0,0,1-2,3.58,1.22,1.22,0,0,1-.33.14,4.26,4.26,0,0,1,2.84,4.47,4.32,4.32,0,0,1-2.55,4.28,9.69,9.69,0,0,1-3.59.48h-6.22Zm1.58,1.56v5.77h5.32q3.25,0,3.26-2.91a2.64,2.64,0,0,0-.83-2.23,4.29,4.29,0,0,0-2.64-.63Zm0,14.28h5.15a7.46,7.46,0,0,0,2-.18c1.33-.34,2-1.34,2-3a3.41,3.41,0,0,0-1.15-2.9,5.61,5.61,0,0,0-3.24-.89H651.2Z" transform="translate(-79.57 -17.9)"/><path class="cls-1" d="M655.82,115.52h-7.07V96.44h7.36c5.09,0,6.16,2.88,6.16,5.29a4.67,4.67,0,0,1-1.44,3.67,5.29,5.29,0,0,1,2,4.54c-.07,3.07-1.69,4.41-3.05,5a9.45,9.45,0,0,1-3.94.58ZM652,112.29h4.3a6.2,6.2,0,0,0,1.77-.19c.64-.12,1.36-.51,1.34-2.12a2.78,2.78,0,0,0-.8-2.24,5.09,5.09,0,0,0-2.75-.71H652Zm0-8.49h4.47c2.1,0,2.43-1,2.43-2.09a2.06,2.06,0,0,0-.53-1.62,4.38,4.38,0,0,0-2.11-.41H652Z" transform="translate(-79.57 -17.9)"/><path class="cls-1" d="M663.86,97.25h7.59c3.32.14,5,1.71,5,4.75,0,2-.68,3.33-2.07,3.92l-.28.1a3.69,3.69,0,0,1,1.38.77,2.26,2.26,0,0,1,.56.84,8.94,8.94,0,0,1,.14,2v2a5.28,5.28,0,0,0,.76,3h-2a7.74,7.74,0,0,1-.38-2.48v-2.67a2.45,2.45,0,0,0-.63-2,3.27,3.27,0,0,0-2.49-.8h-6v7.91h-1.61Zm1.61,8h6.43c1.93-.07,2.92-1.2,2.94-3.35s-1.22-3-3.73-3h-5.64Z" transform="translate(-79.57 -17.9)"/><path class="cls-1" d="M678.55,115.52h-4.22l-.19-.58a9.25,9.25,0,0,1-.43-2.71v-2.7a2,2,0,0,0-.35-1.38,2.8,2.8,0,0,0-1.92-.52h-5.11v7.89H663V96.42h8.42c4.85.19,5.82,3.13,5.82,5.6a5,5,0,0,1-1.47,4,2.43,2.43,0,0,0,.25.2,3.52,3.52,0,0,1,.76,1.18,10,10,0,0,1,.21,2.32v2a4.68,4.68,0,0,0,.6,2.56l.92,1.29Zm-12.22-11.15h5.57c1,0,2-.37,2.1-2.5,0-1.06-.34-2.15-2.89-2.19h-4.78Z" transform="translate(-79.57 -17.9)"/><path class="cls-1" d="M685.33,97.25h2.26l6.46,17.43h-1.63l-1.88-5.19h-8.12l-1.91,5.19H678.9Zm1.13,1.48-3.41,9.17h6.86Z" transform="translate(-79.57 -17.9)"/><path class="cls-1" d="M695.26,115.52h-3.42l-1.9-5.2H683l-1.9,5.2h-3.42l7.06-19.1h1.67v0h1.67l7.09,19.1Zm-11-8.44h4.4l-2.2-5.92Z" transform="translate(-79.57 -17.9)"/><path class="cls-1" d="M696.87,97.25h7.56c3.33.14,5,1.71,5,4.75,0,2-.7,3.33-2.1,3.92l-.25.1a3.57,3.57,0,0,1,1.37.77,2.2,2.2,0,0,1,.57.84,7.9,7.9,0,0,1,.14,2v2a5.1,5.1,0,0,0,.77,3h-2a9.44,9.44,0,0,1-.39-2.48v-2.67a2.55,2.55,0,0,0-.6-2,3.33,3.33,0,0,0-2.51-.8h-6v7.91h-1.59Zm1.59,8h6.43c1.91-.07,2.91-1.2,3-3.35s-1.22-3-3.72-3h-5.66Z" transform="translate(-79.57 -17.9)"/><path class="cls-1" d="M711.54,115.52h-4.21l-.2-.58a13.77,13.77,0,0,1-.42-2.71v-2.7a2.16,2.16,0,0,0-.32-1.38,2.85,2.85,0,0,0-1.94-.52h-5.12v7.89H696V96.42h8.5c4.78.19,5.77,3.13,5.77,5.6a5,5,0,0,1-1.49,4l.23.2a3.32,3.32,0,0,1,.81,1.18,8.61,8.61,0,0,1,.2,2.32v2a4.76,4.76,0,0,0,.58,2.56l.94,1.29Zm-12.21-11.15h5.56c1,0,2-.37,2.1-2.5,0-1.06-.35-2.15-2.88-2.19h-4.78Z" transform="translate(-79.57 -17.9)"/><path class="cls-1" d="M711.2,97.25h1.87l5.75,8.53,5.68-8.53h1.91l-6.83,10.42v6.84H718v-6.84Z" transform="translate(-79.57 -17.9)"/><path class="cls-1" d="M720.45,115.38h-3.33v-7.46l-7.47-11.5h3.87l5.3,7.85,5.23-7.85H728l-7.52,11.5v7.46Zm-3.12-10.3,1.49,2.28.64-1-.62,1Z" transform="translate(-79.57 -17.9)"/><polygon class="cls-1" points="147.95 36.15 140.61 36.15 140.61 52.55 176.92 52.55 176.92 46.8 147.95 46.8 147.95 36.15"/><path class="cls-1" d="M217,34.35A10.54,10.54,0,0,0,216,42a10.85,10.85,0,0,0,4.29,6.18A15.84,15.84,0,0,0,229.87,51a17,17,0,0,0,9.73-2.69,10.69,10.69,0,0,0,4.45-6.11,11.63,11.63,0,0,0-1-7.86,10.65,10.65,0,0,0-6.9-5.09h7.62V23.7h-10V19.61h-7.34V23.7H216v5.56h7.56A10.62,10.62,0,0,0,217,34.35Zm7.81.24a6.78,6.78,0,0,1,5.09-1.9,7.29,7.29,0,0,1,5.36,2A6.47,6.47,0,0,1,237,39.24a5.7,5.7,0,0,1-1.88,4.31,7.27,7.27,0,0,1-5.25,1.9,6.8,6.8,0,0,1-5.09-2A6.26,6.26,0,0,1,223.07,39,6.18,6.18,0,0,1,224.78,34.59Z" transform="translate(-79.57 -17.9)"/><polygon class="cls-1" points="176.59 23.59 181.64 23.59 181.64 17.55 176.59 17.55 176.59 2.02 169.27 2.02 169.27 39.02 176.59 39.02 176.59 23.59"/><path class="cls-1" d="M295.13,45.16h17.69V39.42h-3.2a64.93,64.93,0,0,0,.78-6.51c.17-2.19.25-4.33.25-6.46V21H272.71v5.78h30.62v2.9a46.36,46.36,0,0,1-.23,5,37.52,37.52,0,0,1-.68,4.72H270.57v5.77H287.8v7.15H272.73v5.75h30.6V70.91h7.29V52.32H295.13Z" transform="translate(-79.57 -17.9)"/><polygon class="cls-1" points="279.24 22.86 275.39 22.86 275.39 2.08 268.09 2.08 268.09 53.09 275.39 53.09 275.39 28.8 279.24 28.8 279.24 53.09 286.45 53.09 286.45 2.08 279.24 2.08 279.24 22.86"/><path class="cls-1" d="M324.67,38.16a35.43,35.43,0,0,0-1,12.47,27.22,27.22,0,0,0,3.18,11.53c1.9,3.38,4.39,5.08,7.52,5.08s5.71-1.7,7.69-5.08a27.51,27.51,0,0,0,3.19-11.56,35.49,35.49,0,0,0-1.07-12.44c-1.13-4.12-2.88-7-5.19-8.59h6.26V23.92h-7.68V19.7h-7.3v4.22h-6.82v5.63h6.45Q326.33,32,324.67,38.16Zm7-1c.6-2.77,1.55-4.18,2.74-4.18s2.23,1.41,2.87,4.18a42.72,42.72,0,0,1,.88,9.77,45.37,45.37,0,0,1-.88,9.8c-.68,3.15-1.63,4.72-2.87,4.72s-2.1-1.57-2.74-4.72a48,48,0,0,1-.8-9.8,45.76,45.76,0,0,1,.78-9.77Z" transform="translate(-79.57 -17.9)"/><path class="cls-1" d="M389.5,47.25c4.49,0,8-1.38,10.45-4.18a13.81,13.81,0,0,0,3.38-9.61A13.87,13.87,0,0,0,400,23.82c-2.46-2.74-6-4.12-10.45-4.12s-7.94,1.38-10.39,4.12a14,14,0,0,0-3.34,9.64,14,14,0,0,0,3.34,9.61C381.56,45.87,385,47.25,389.5,47.25Zm-4.9-19.54a5.57,5.57,0,0,1,4.9-2.41,5.68,5.68,0,0,1,4.95,2.41,9.81,9.81,0,0,1,1.48,5.75,9.87,9.87,0,0,1-1.48,5.7,5.65,5.65,0,0,1-4.95,2.44,5.53,5.53,0,0,1-4.9-2.44,9.84,9.84,0,0,1-1.47-5.74,9.82,9.82,0,0,1,1.47-5.71Z" transform="translate(-79.57 -17.9)"/><polygon class="cls-1" points="335.77 25.39 340.76 25.39 340.76 19.71 335.77 19.71 335.77 13.29 340.76 13.29 340.76 7.66 335.77 7.66 335.77 2.06 328.44 2.06 328.44 30.79 335.77 30.79 335.77 25.39"/><path class="cls-1" d="M411.47,68.91c3.07-2,4.59-4.52,4.59-7.49s-1.52-5.52-4.59-7.59c-3.46-2.29-8.16-3.43-14.05-3.43s-10.75,1.14-14.17,3.43c-3,2-4.55,4.55-4.55,7.59s1.52,5.45,4.55,7.49c3.42,2.27,8.15,3.44,14.17,3.44S408,71.16,411.47,68.91Zm-22.82-4Q386,63.47,386,61.42c0-1.45.9-2.65,2.69-3.62a18,18,0,0,1,8.43-1.64,19.43,19.43,0,0,1,8.77,1.65c1.85,1,2.8,2.17,2.8,3.62s-.95,2.53-2.8,3.49c-2.11,1.1-5.06,1.64-8.77,1.64S390.67,66,388.65,64.91Z" transform="translate(-79.57 -17.9)"/><polygon class="cls-1" points="384.03 53.03 391.39 53.03 391.39 2.06 384.03 2.06 384.03 22.32 378.62 22.32 378.62 2.06 371.28 2.06 371.28 41.53 358.3 41.53 358.3 8.82 366.81 8.82 366.81 3.15 351.02 3.15 351.02 47.16 357.02 47.16 371.28 47.16 371.28 53.09 378.62 53.09 378.62 28.13 384.03 28.13 384.03 53.03"/><path class="cls-1" d="M484.33,33a9.35,9.35,0,0,0-.75,7.05,10.51,10.51,0,0,0,4.3,5.85,18.24,18.24,0,0,0,19,0A10.46,10.46,0,0,0,511.33,40a9.21,9.21,0,0,0-.91-7c-1.28-2.17-3.46-3.67-6.62-4.57h7.53V23h-10.1V19.7H493.9V23H483.5V28.4H491C487.82,29.3,485.62,30.8,484.33,33Zm8,.53a8.37,8.37,0,0,1,10.22,0,4.91,4.91,0,0,1,1.76,3.83,5.28,5.28,0,0,1-1.8,3.83,7.77,7.77,0,0,1-10.18,0,5.37,5.37,0,0,1-1.64-3.87A5,5,0,0,1,492.33,33.5Z" transform="translate(-79.57 -17.9)"/><polygon class="cls-1" points="444.11 19.88 449.09 19.88 449.09 14.04 444.11 14.04 444.11 2.04 436.77 2.04 436.77 30.96 444.11 30.96 444.11 19.88"/><polygon class="cls-1" points="444.11 52.99 444.11 34.38 407.28 34.38 407.28 40.12 436.77 40.12 436.77 52.99 444.11 52.99"/><path class="cls-1" d="M580.33,61.72h-5a62.16,62.16,0,0,0,2.14-10.28,86.08,86.08,0,0,0,.7-11V21h-38v6.29h30.67V43.07a67,67,0,0,1-.71,9.91,58,58,0,0,1-1.94,8.74h-4.44v-23h-7.37v23h-5.66v-23H543.4v23h-5.35v5.62h42.28Z" transform="translate(-79.57 -17.9)"/><path class="cls-1" d="M190.49,34.25h-7.34v3h14.9v5.94H202v-9H194.4v-3H203v-3h-1.52a22,22,0,0,0,.33-2.8,25.12,25.12,0,0,0,.15-3V19.74H183.17v3h14.88v1.15a21.07,21.07,0,0,1-.08,2.33,13.67,13.67,0,0,1-.33,2H182.1v3h8.39Z" transform="translate(-79.57 -17.9)"/><path class="cls-1" d="M202.19,61.57h-3.86v1.68h-10.4V61.57h-4V70.7h18.22Zm-3.86,6.11h-10.4V66.23h10.4Z" transform="translate(-79.57 -17.9)"/><polygon class="cls-1" points="103.21 34.13 103.21 42.27 118.68 42.27 118.68 42.81 122.56 42.81 122.56 29.04 118.68 29.04 118.68 39.31 107.14 39.31 107.14 37.02 115.55 37.02 115.55 29.48 103.21 29.48 103.21 32.45 111.66 32.45 111.66 34.13 103.21 34.13"/><path class="cls-1" d="M399.27,103H396.1l-1.53,4.17-1.38-1.69a5.86,5.86,0,0,0,1.64-1.9,4.49,4.49,0,0,0,.64-2.31,4.89,4.89,0,0,0-1.14-3.4,3.5,3.5,0,0,0-2.76-1.5,4,4,0,0,0-3.07,1.43,5.25,5.25,0,0,0-1.32,3.48,6.17,6.17,0,0,0,.33,2,5.28,5.28,0,0,0,1.09,1.78,8,8,0,0,0-2,2.4,6.57,6.57,0,0,0-.74,2.94,6.22,6.22,0,0,0,1.34,4.21,4.33,4.33,0,0,0,3.48,1.85,4.21,4.21,0,0,0,2.62-.89,8.34,8.34,0,0,0,2.23-2.61l3,3.32,2-2.56-3.6-4.06Zm-8.72-2.83a1.1,1.1,0,0,1,.85-.35.92.92,0,0,1,.8.37,1.55,1.55,0,0,1,.31,1.06,1.77,1.77,0,0,1-.35,1.06,3.73,3.73,0,0,1-1,.94,3.46,3.46,0,0,1-.78-1,2.15,2.15,0,0,1-.19-1.06A1.65,1.65,0,0,1,390.55,100.16Zm1.54,12.12a1.93,1.93,0,0,1-1.33.53,1.69,1.69,0,0,1-1.43-.65,2.78,2.78,0,0,1-.48-1.79,3.79,3.79,0,0,1,.43-1.62,5.33,5.33,0,0,1,1.32-1.36l2.66,3.13a5.6,5.6,0,0,1-1.17,1.79Z" transform="translate(-79.57 -17.9)"/><polygon class="cls-1" points="115.61 78.69 111.14 78.69 106.01 86.06 106.01 78.69 102.34 78.69 102.34 97.83 106.01 97.83 106.01 91.72 107.2 89.59 112.29 97.83 116.67 97.83 109.41 86.92 115.61 78.69"/><path class="cls-1" d="M204.48,96.16c-2.86,0-4.81.73-5.87,2.2a6.82,6.82,0,0,0-1.05,4.1v7.06a7.22,7.22,0,0,0,1.05,4.3c1.06,1.49,3,2.25,5.87,2.25s4.76-.76,5.83-2.25a7.64,7.64,0,0,0,1.07-4.3v-7a6.91,6.91,0,0,0-1.07-4.1C209.22,96.9,207.27,96.16,204.48,96.16Zm3.21,14.16a3.48,3.48,0,0,1-.59,2.17,3,3,0,0,1-2.6,1.09,3.08,3.08,0,0,1-2.55-1.09,3.33,3.33,0,0,1-.67-2.07v-9a2.57,2.57,0,0,1,.71-1.84,3.33,3.33,0,0,1,2.51-.92,3.26,3.26,0,0,1,2.43.9,2.42,2.42,0,0,1,.76,1.86Z" transform="translate(-79.57 -17.9)"/><path class="cls-1" d="M225,97.16a18.22,18.22,0,0,0-5.5-.59h-5.69v19.14h3.72v-9a26.68,26.68,0,0,1,3.27.11,5.59,5.59,0,0,1,1.67.35,1.17,1.17,0,0,1,.62.69,3.74,3.74,0,0,1,.1,1v6.8h3.75v-6.92a3,3,0,0,0-.37-1.2,3.08,3.08,0,0,0-1-1,7.15,7.15,0,0,0-1.88-.87,4.28,4.28,0,0,0,2.75-1.18,3.7,3.7,0,0,0,.53-2.32V99.64A2.52,2.52,0,0,0,225,97.16Zm-1.85,5.8a1.9,1.9,0,0,1-.12.82,1,1,0,0,1-.65.42,9.41,9.41,0,0,1-1.5.15h-3.35V99h3.1a7.8,7.8,0,0,1,1.67.14,1,1,0,0,1,.68.41,1.55,1.55,0,0,1,.17.87Z" transform="translate(-79.57 -17.9)"/><polygon class="cls-1" points="153.49 89.14 159.51 89.14 159.51 86.75 153.49 86.75 153.49 81.19 159.92 81.19 159.92 78.69 149.8 78.69 149.8 97.83 160.13 97.83 160.13 95.28 153.49 95.28 153.49 89.14"/><path class="cls-1" d="M245.63,96.59,241,115.73h3.75l1.15-4.92h5l1.19,4.92h3.73l-4.65-19.14Zm.89,11.61,1.92-8.21,1.83,8.21Z" transform="translate(-79.57 -17.9)"/><polygon class="cls-1" points="196.5 93.17 194.89 83.56 193.86 78.69 187.26 78.69 187.26 97.83 190.98 97.83 190.98 81.8 194.71 97.83 198.36 97.83 202 81.8 202 97.83 205.69 97.83 205.69 78.69 199.2 78.69 196.5 93.17"/><path class="cls-1" d="M291.86,96.59l-4.66,19.14H291l1.18-4.92h5l1.22,4.92h3.73L297.4,96.59Zm.91,11.61,1.89-8.21,1.83,8.21Z" transform="translate(-79.57 -17.9)"/><path class="cls-1" d="M315.17,97.16a18.37,18.37,0,0,0-5.48-.59H304v19.14h3.71v-9a26.59,26.59,0,0,1,3.27.11,5.59,5.59,0,0,1,1.67.35,1.12,1.12,0,0,1,.62.69,3.74,3.74,0,0,1,.1,1v6.8h3.73v-5.42a12.51,12.51,0,0,0,0-1.5,2.32,2.32,0,0,0-.37-1.2,2.67,2.67,0,0,0-1-1,6.65,6.65,0,0,0-1.87-.87,4.2,4.2,0,0,0,2.76-1.18,3.84,3.84,0,0,0,.51-2.32V99.64A2.5,2.5,0,0,0,315.17,97.16ZM313.33,103a1.92,1.92,0,0,1-.14.82,1,1,0,0,1-.64.42,9.41,9.41,0,0,1-1.5.15h-3.36V99h3.1a8.08,8.08,0,0,1,1.7.14,1.08,1.08,0,0,1,.68.41,1.73,1.73,0,0,1,.16.87Z" transform="translate(-79.57 -17.9)"/><rect class="cls-1" x="240.29" y="78.7" width="3.79" height="19.14"/><polygon class="cls-1" points="245.76 81.19 249.96 81.19 249.96 97.83 253.75 97.83 253.75 81.19 258.78 81.19 258.78 78.69 245.76 78.69 245.76 81.19"/><rect class="cls-1" x="260.61" y="78.7" width="3.79" height="19.14"/><polygon class="cls-1" points="276.58 93.17 274.98 83.56 273.97 78.69 267.35 78.69 267.35 97.83 271.08 97.83 271.08 81.8 274.79 97.83 278.44 97.83 282.1 81.8 282.1 97.83 285.8 97.83 285.8 78.69 279.28 78.69 276.58 93.17"/><polygon class="cls-1" points="292.2 89.14 298.24 89.14 298.24 86.75 292.2 86.75 292.2 81.19 298.66 81.19 298.66 78.69 288.53 78.69 288.53 97.83 298.86 97.83 298.86 95.28 292.2 95.28 292.2 89.14"/><path class="cls-1" d="M414.52,96.16c-2.78,0-4.69.73-5.71,2.2a6.94,6.94,0,0,0-1,4.1v7.06a7.6,7.6,0,0,0,1,4.3c1,1.49,2.93,2.25,5.71,2.25s4.66-.76,5.69-2.25a7.79,7.79,0,0,0,1-4.3v-7a7,7,0,0,0-1-4.1C419.13,96.92,417.24,96.16,414.52,96.16Zm3.15,14.16a3.43,3.43,0,0,1-.6,2.17,3.39,3.39,0,0,1-4.79.21l-.21-.21a3.23,3.23,0,0,1-.69-2.07v-9a2.65,2.65,0,0,1,.69-1.84,3.27,3.27,0,0,1,2.45-.92,3.16,3.16,0,0,1,2.39.9,2.64,2.64,0,0,1,.74,1.86Z" transform="translate(-79.57 -17.9)"/><path class="cls-1" d="M430.33,96.16c-2.58,0-4.37.69-5.47,2.06a8.29,8.29,0,0,0-1.3,5.08v5.6c0,2.43.44,4.17,1.3,5.25,1.08,1.27,2.93,1.92,5.63,1.92s4.39-.65,5.46-1.94a7.05,7.05,0,0,0,1.32-4.68v-.78h-3.63v1.78a2.92,2.92,0,0,1-2.58,3.24,2.48,2.48,0,0,1-.61,0,3.36,3.36,0,0,1-2.43-.88,2.85,2.85,0,0,1-.85-2.21v-8.84a3,3,0,0,1,.85-2.26,3.46,3.46,0,0,1,2.43-.79,3.73,3.73,0,0,1,2.46.71,1.94,1.94,0,0,1,.73,1.61v2.45h3.63v-1.81a5,5,0,0,0-1.46-3.82Q434.1,96.17,430.33,96.16Z" transform="translate(-79.57 -17.9)"/><polygon class="cls-1" points="363.86 89.14 369.73 89.14 369.73 86.75 363.86 86.75 363.86 81.19 370.13 81.19 370.13 78.69 360.25 78.69 360.25 97.83 370.31 97.83 370.31 95.28 363.86 95.28 363.86 89.14"/><path class="cls-1" d="M455.65,96.59l-4.53,19.14h3.67l1.13-4.92h4.88l1.15,4.92h3.64l-4.53-19.14Zm.89,11.61,1.85-8.21,1.8,8.21Z" transform="translate(-79.57 -17.9)"/><polygon class="cls-1" points="397.08 93.25 392.55 78.69 387.68 78.69 387.68 97.83 391.29 97.83 391.29 83.3 395.58 97.83 400.73 97.83 400.73 78.69 397.08 78.69 397.08 93.25"/><path class="cls-1" d="M501.46,110.81a3.18,3.18,0,0,1-.43,2,3.38,3.38,0,0,1-2.53.69,3.62,3.62,0,0,1-2.66-.69,3.2,3.2,0,0,1-.46-2V96.56h-3.69v13a16.72,16.72,0,0,0,.17,2.55,4.69,4.69,0,0,0,.83,2.1,4.28,4.28,0,0,0,2,1.4,11.1,11.1,0,0,0,3.79.52,10.86,10.86,0,0,0,3.71-.52,4.23,4.23,0,0,0,2-1.4,5,5,0,0,0,.8-2.1,16.7,16.7,0,0,0,.14-2.55v-13h-3.67Z" transform="translate(-79.57 -17.9)"/><polygon class="cls-1" points="437.66 93.25 433.13 78.69 428.28 78.69 428.28 97.83 431.86 97.83 431.86 83.3 436.15 97.83 441.3 97.83 441.3 78.69 437.66 78.69 437.66 93.25"/><rect class="cls-1" x="443.91" y="78.7" width="3.68" height="19.14"/><path class="cls-1" d="M539.53,101.45c-.37,1.6-.79,3.34-1.26,5.26-.27,1.09-.66,2.77-1.21,5l-.27,1.24-3.86-16.36h-3.66l4.49,19.14h6.06l4.59-19.14h-3.77Z" transform="translate(-79.57 -17.9)"/><polygon class="cls-1" points="470.28 89.14 476.15 89.14 476.15 86.75 470.28 86.75 470.28 81.19 476.52 81.19 476.52 78.69 466.68 78.69 466.68 97.83 476.73 97.83 476.73 95.28 470.28 95.28 470.28 89.14"/><path class="cls-1" d="M569.33,97.16a17.3,17.3,0,0,0-5.31-.59h-5.55v19.14h3.61v-9a25.6,25.6,0,0,1,3.19.11,5.21,5.21,0,0,1,1.61.35,1,1,0,0,1,.59.69,3.08,3.08,0,0,1,.11,1v6.8h3.65v-5.42a10.75,10.75,0,0,0-.05-1.5,2.89,2.89,0,0,0-1.32-2.2,6.58,6.58,0,0,0-1.81-.87,4.08,4.08,0,0,0,2.68-1.18,3.91,3.91,0,0,0,.5-2.32V99.64A2.49,2.49,0,0,0,569.33,97.16Zm-1.78,5.8a2.06,2.06,0,0,1-.11.82,1.12,1.12,0,0,1-.64.42,9,9,0,0,1-1.47.15h-3.25V99h3a7.11,7.11,0,0,1,1.6.14c.35.09.58.22.66.41a1.46,1.46,0,0,1,.16.87Z" transform="translate(-79.57 -17.9)"/><path class="cls-1" d="M585.63,107A6.28,6.28,0,0,0,584,105.8c-.45-.25-1.28-.68-2.49-1.27l-1.15-.55c-.85-.41-1.47-.72-1.84-.94a3.71,3.71,0,0,1-1-.71,1.82,1.82,0,0,1-.4-.65v-.89a2.41,2.41,0,0,1,.39-1.63,3.45,3.45,0,0,1,2.39-.6,3.37,3.37,0,0,1,2.23.55,2.18,2.18,0,0,1,.43,1.56v1.73h3.65V99a2.27,2.27,0,0,0-1.49-2,12.16,12.16,0,0,0-5-.79,8,8,0,0,0-4.81,1.2,4.36,4.36,0,0,0-1.54,3.65,4.3,4.3,0,0,0,1.18,3.25,15.74,15.74,0,0,0,3.72,2.31,14.52,14.52,0,0,1,3.92,2.5,3.13,3.13,0,0,1,.8,2.24,2.18,2.18,0,0,1-.57,1.67,3.37,3.37,0,0,1-2.48.72,3.29,3.29,0,0,1-2.33-.63,2.56,2.56,0,0,1-.43-1.7v-2h-3.67V112a3.64,3.64,0,0,0,1.24,3c1,.8,2.66,1.17,5.08,1.17s4.22-.42,5.31-1.3a4.77,4.77,0,0,0,1.54-4,9,9,0,0,0-.27-2.31A3.55,3.55,0,0,0,585.63,107Z" transform="translate(-79.57 -17.9)"/><rect class="cls-1" x="509.72" y="78.7" width="3.69" height="19.14"/><polygon class="cls-1" points="515.04 81.19 519.11 81.19 519.11 97.83 522.79 97.83 522.79 81.19 527.71 81.19 527.71 78.69 515.04 78.69 515.04 81.19"/><path class="cls-1" d="M617.84,96.59l-3.21,9.16-.77-2.24c-.45-1.38-.8-2.5-1.09-3.3-.44-1.38-.84-2.6-1.22-3.62h-3.7l5,12.34v6.8h3.59v-6.8l5.13-12.34Z" transform="translate(-79.57 -17.9)"/><polygon class="cls-1" points="105.37 61.34 102.57 61.34 102.57 73.25 105.37 73.25 105.37 66.5 107.83 73.25 110.77 73.25 110.77 61.34 107.97 61.34 107.97 68.28 105.37 61.34"/><path class="cls-1" d="M200.83,91.16l-2.22-12h-5l-2,11.94h3.15l.37-2.27h2.15l.31,2.27Zm-5.44-4.26c.06-.57.15-1.28.29-2.15s.35-2.1.62-3.52l.27,1.89q.21,1.5.3,2.1c.11.67.15,1.22.21,1.68Z" transform="translate(-79.57 -17.9)"/><polygon class="cls-1" points="127.44 73.25 127.44 63.62 129.52 63.62 129.52 61.31 121.98 61.31 121.98 63.62 124.06 63.62 124.06 73.25 127.44 73.25"/><rect class="cls-1" x="130.86" y="61.32" width="3.36" height="11.93"/><path class="cls-1" d="M216.27,89.85A2.8,2.8,0,0,0,217.54,91a5.84,5.84,0,0,0,2.37.41,5.53,5.53,0,0,0,2.31-.41,3,3,0,0,0,1.28-1.12,4.36,4.36,0,0,0,.52-1.65,13.34,13.34,0,0,0,.12-2v-2a13.34,13.34,0,0,0-.12-2,4.36,4.36,0,0,0-.52-1.65,3.2,3.2,0,0,0-1.28-1.11,5.68,5.68,0,0,0-2.31-.39,6,6,0,0,0-2.37.39,3,3,0,0,0-1.27,1.11,5,5,0,0,0-.54,1.65,19,19,0,0,0-.1,2v2a19,19,0,0,0,.1,2A5.06,5.06,0,0,0,216.27,89.85ZM219,82.24a2.81,2.81,0,0,1,.12-1,.8.8,0,0,1,.8-.41.74.74,0,0,1,.68.27,2.23,2.23,0,0,1,.19,1.11V88a2.8,2.8,0,0,1-.1,1c-.11.3-.37.43-.77.43a.74.74,0,0,1-.78-.49,3.76,3.76,0,0,1-.14-1.11Z" transform="translate(-79.57 -17.9)"/><polygon class="cls-1" points="154.48 73.25 154.48 61.34 151.7 61.34 151.7 68.28 149.1 61.34 146.27 61.34 146.27 73.25 149.08 73.25 149.08 66.5 151.53 73.25 154.48 73.25"/><path class="cls-1" d="M241,88.87l.29,2.29h3.21l-2.21-12h-5l-2,11.94h3.15l.35-2.27Zm-1.65-4.14c.14-.92.35-2.1.62-3.52l.26,1.89c.15,1,.25,1.7.31,2.1.1.67.17,1.22.21,1.68H239.1c.06-.57.14-1.28.29-2.15Z" transform="translate(-79.57 -17.9)"/><polygon class="cls-1" points="166.4 61.34 166.4 73.25 172.35 73.25 172.35 70.94 169.73 70.94 169.73 61.34 166.4 61.34"/><path class="cls-2" d="M119.3,39.72l-.08,1.85s.27.3-.3.3h-8.85A2.26,2.26,0,0,0,108,43.53c-.47,1.65-4.52,19.48-4.52,19.48a6.33,6.33,0,0,0,5,1.08s.08,0,.15-.42,1.74-10.92,2-12.61.81-4.84.93-5.23c.19-.23.19-.19.42-.19l3.17,0s.12-.08.12.19-1.63,15.45-1.63,15.45-.07.31.12.23a15.78,15.78,0,0,1,4.83-1.3s.15,0,.19-.39.5-14,.5-14,0-.23.27-.23h3.06s.3,0,.3.35.43,14.06.43,14.06,0,.12.23.16,3.75.73,4.52,1.34l.27.08-1.32-16,3.33,0s.19-.12.27.23S133.32,64,133.32,64s0,.19.27.3,3.33.27,4.71-1l0-.27-4.17-19.26s0-1.84-2.82-1.88-8.42,0-8.42,0l-.15-3.65a.41.41,0,0,0-.28-.15l-3,0s-.15,0-.15.19-.08,1.46-.08,1.46" transform="translate(-79.57 -17.9)"/><polygon class="cls-2" points="0.04 40.07 4.46 41.71 0.01 41.64 0 42.5 10.89 42.67 10.9 41.82 7.22 41.76 6.13 41.34 10.93 40.16 10.95 39.04 4.5 40.71 0.06 38.97 0.04 40.07"/><path class="cls-2" d="M80.51,54.54c-.57-.42-.83-.85-.77-1.3s.44-.79,1.11-1a10.74,10.74,0,0,1,4.84-.1,10.69,10.69,0,0,1,4.59,1.45c.58.43.84.86.78,1.3s-.44.79-1.12,1a10.63,10.63,0,0,1-4.81.1,10.62,10.62,0,0,1-4.62-1.45m7.76.65c.53-.12.81-.33.85-.61s-.17-.56-.64-.82A8.53,8.53,0,0,0,85.57,53a9,9,0,0,0-3.06-.05c-.52.12-.8.33-.84.61s.17.56.64.83a8.94,8.94,0,0,0,2.94.8,8.79,8.79,0,0,0,3,0" transform="translate(-79.57 -17.9)"/><path class="cls-2" d="M80.66,49.7l.57-2c.12-.45.6-.68,1.42-.69a6.66,6.66,0,0,1,1.89.28,6.89,6.89,0,0,1,1.51.59,1.93,1.93,0,0,1,.82.71,1.71,1.71,0,0,1,.84-.16,10.36,10.36,0,0,1,2,.4c.82.23,1.33.37,1.54.41a.92.92,0,0,0,.59,0l.26.07-.26.93c-.27,0-.56-.1-.86-.18s-.77-.19-1.27-.33a7.8,7.8,0,0,0-1.57-.33.55.55,0,0,0-.61.42l-.24.86,4.11,1.14-.23.81Zm5.15-.5a.5.5,0,0,0-.21-.56,2.93,2.93,0,0,0-1.07-.47,3.06,3.06,0,0,0-.94-.15q-.51,0-.6.33l-.29,1,2.83.79Z" transform="translate(-79.57 -17.9)"/><polygon class="cls-2" points="2.58 26.94 12.64 31.07 13.83 28.2 12.06 27.47 11.19 29.57 8.58 28.49 9.34 26.65 7.58 25.92 6.82 27.77 4.68 26.89 5.52 24.88 3.74 24.15 2.58 26.94"/><path class="cls-2" d="M93.81,45.35l-.45.79-8.77-6.59.49-.87,10.23,4-.46.81-2.1-.85L92,44Zm-3.34-2.46L91,42l-4-1.64v0Z" transform="translate(-79.57 -17.9)"/><polygon class="cls-2" points="19.11 20.51 18.6 21.13 12.08 15.77 18.11 21.72 17.58 22.36 10.57 17.59 10.56 17.59 17.08 22.95 16.57 23.57 8.17 16.68 8.98 15.7 15.81 20.34 15.81 20.34 9.93 14.56 10.72 13.61 19.11 20.51"/><path class="cls-2" d="M99.39,37.75l-.67.62-6.31-9,.73-.67,8.5,6.93-.69.64-1.73-1.46-1.15,1.06ZM97,34.38l.79-.73-3.31-2.78h0Z" transform="translate(-79.57 -17.9)"/><path class="cls-2" d="M95.39,26.81l1.71-1.23c.38-.27.9-.16,1.54.35A7.05,7.05,0,0,1,100,27.32a7.35,7.35,0,0,1,.8,1.4,2,2,0,0,1,.2,1.07,1.62,1.62,0,0,1,.75.4,9.9,9.9,0,0,1,1.3,1.54c.49.69.81,1.11,1,1.28a.85.85,0,0,0,.46.35l.16.22-.78.56q-.29-.3-.57-.66c-.21-.28-.48-.63-.78-1.06a9,9,0,0,0-1-1.23.53.53,0,0,0-.73-.05l-.73.52,2.49,3.44-.69.5Zm4.33,2.8a.5.5,0,0,0,.2-.56,2.84,2.84,0,0,0-.55-1,3,3,0,0,0-.64-.7c-.27-.21-.5-.24-.67-.11l-.88.63L98.9,30.2Z" transform="translate(-79.57 -17.9)"/><polygon class="cls-2" points="26.21 15.02 25.46 15.46 19.92 6.13 20.66 5.69 26.21 15.02"/><polygon class="cls-2" points="28.45 13.87 27.66 14.24 23.76 6.22 22.61 6.77 21.77 5.04 24.85 3.56 25.7 5.29 24.54 5.84 28.45 13.87"/><polygon class="cls-2" points="30.77 12.9 29.96 13.21 26.05 3.1 26.86 2.79 30.77 12.9"/><polygon class="cls-2" points="30.99 1.49 32.48 9.59 32.48 9.59 29.56 1.89 28.34 2.22 31.24 12.67 32.01 12.46 29.77 4.34 29.78 4.34 32.76 12.25 33.56 12.03 32.06 3.71 34.31 11.82 35.09 11.61 32.19 1.17 30.99 1.49"/><polygon class="cls-2" points="33.9 0.84 35.45 11.57 38.55 11.13 38.28 9.24 36.02 9.56 35.62 6.77 37.6 6.49 37.33 4.61 35.34 4.9 35.02 2.63 37.18 2.31 36.91 0.41 33.9 0.84"/><path class="cls-2" d="M123.25,29l-1,0L122,28a3.64,3.64,0,0,1-.47.82,1,1,0,0,1-.74.36c-.38,0-.69-.33-.92-1a5.9,5.9,0,0,1-.3-2.17,7.67,7.67,0,0,1,.16-1.57,5.07,5.07,0,0,1,.69-1.58l.09-.13a7.94,7.94,0,0,1-.24-1,7.71,7.71,0,0,1-.09-1.36,5,5,0,0,1,.34-1.87c.22-.46.48-.68.81-.67s.47.21.66.61a4.84,4.84,0,0,1,.29,2,5.56,5.56,0,0,1-.3,1.8,4.08,4.08,0,0,1-.41.84h0l.55,1.91c.06-.27.1-.52.14-.76s.07-.65.09-1h.72c0,.69-.1,1.28-.18,1.8a13.88,13.88,0,0,1-.35,1.46Zm-2.33-4.85a5,5,0,0,0-.39.8,3.38,3.38,0,0,0-.14,1,3.13,3.13,0,0,0,.1.88c.11.39.27.59.49.59s.24-.08.37-.25a2.76,2.76,0,0,0,.28-.52Zm.61-4.4c-.06-.16-.13-.24-.24-.24s-.18.07-.24.23a2.15,2.15,0,0,0-.11.71,3.88,3.88,0,0,0,.06.67,5.12,5.12,0,0,0,.21.78,3,3,0,0,0,.28-.62,2.91,2.91,0,0,0,.13-.8,2.24,2.24,0,0,0-.09-.73" transform="translate(-79.57 -17.9)"/><path class="cls-2" d="M126.72,19.19c.42-.57.83-.81,1.24-.74s.72.44.92,1.11a11.51,11.51,0,0,1-.1,4.81,11.38,11.38,0,0,1-1.53,4.53c-.42.57-.84.83-1.24.76s-.72-.45-.92-1.13a11.37,11.37,0,0,1,.1-4.78,11.44,11.44,0,0,1,1.53-4.56m-.91,7.69c.09.52.27.81.53.86s.53-.17.79-.63a9.24,9.24,0,0,0,.87-2.88,9.24,9.24,0,0,0,.16-3c-.09-.52-.26-.8-.53-.85s-.53.17-.79.63a9.54,9.54,0,0,0-.86,2.9,9.14,9.14,0,0,0-.17,3" transform="translate(-79.57 -17.9)"/><path class="cls-2" d="M132.09,23.39a7.56,7.56,0,0,0,.14-1.17c0-.49-.16-.77-.43-.84s-.5.1-.79.52a9.66,9.66,0,0,0-1.15,2.78,12.1,12.1,0,0,0-.5,2.51c-.05.76.09,1.19.4,1.28s.43-.06.66-.36a4.83,4.83,0,0,0,.7-1.38l.77.22a10.46,10.46,0,0,1-1.31,2.63c-.49.64-1,.9-1.39.77s-.78-.72-.8-1.73a14.18,14.18,0,0,1,.7-4.2,14.09,14.09,0,0,1,1.65-3.9c.57-.84,1.11-1.18,1.6-1s.77.67.82,1.6a8.44,8.44,0,0,1-.3,2.53Z" transform="translate(-79.57 -17.9)"/><polygon class="cls-2" points="57.43 5.57 55.56 4.81 54.69 6.94 56.41 7.63 55.69 9.38 53.98 8.69 52.9 11.3 54.85 12.09 54.13 13.86 51.45 12.77 55.57 2.74 58.16 3.79 57.43 5.57"/><path class="cls-2" d="M134.33,32.08l-.74-.39L140,22.8l.81.44-4,10.18-.76-.41.84-2.09-1.27-.68Zm2.39-3.38.88.47,1.62-4h0Z" transform="translate(-79.57 -17.9)"/><polygon class="cls-2" points="65.43 8 66.03 8.42 59.81 17.32 59.17 16.87 62.32 9.66 62.31 9.65 57.88 15.98 57.27 15.56 63.49 6.66 64.18 7.14 61.09 14.2 61.09 14.21 65.43 8"/><path class="cls-2" d="M145.55,35.6a8.76,8.76,0,0,1-2.47,2,1.27,1.27,0,0,1-1.5-.08.87.87,0,0,1-.26-.63,2.28,2.28,0,0,1,.29-1.17,7.14,7.14,0,0,1,.64-1,12.32,12.32,0,0,1,1-1.1l5-5.18.59.57L143.92,34a5.06,5.06,0,0,0-1,1.31c-.16.34-.16.58,0,.72s.46.19.8,0a4.74,4.74,0,0,0,1.19-1L149.82,30l.59.56Z" transform="translate(-79.57 -17.9)"/><polygon class="cls-2" points="73.42 15.58 73.9 16.14 65.54 23.09 65.03 22.48 69.99 16.36 69.98 16.35 64.03 21.29 63.55 20.72 71.91 13.78 72.45 14.42 67.59 20.42 67.59 20.42 73.42 15.58"/><polygon class="cls-2" points="66.28 24.17 65.81 23.52 74.71 17.27 75.17 17.91 66.28 24.17"/><polygon class="cls-2" points="77.05 20.86 77.47 21.57 67.25 26.19 66.86 25.55 75.77 18.75 76.21 19.48 69.34 24.53 69.34 24.53 77.05 20.86"/><polygon class="cls-2" points="77.44 25.93 76.58 24.11 74.5 25.09 75.29 26.75 73.57 27.56 72.78 25.89 70.21 27.09 71.11 28.98 69.38 29.8 68.15 27.2 78 22.58 79.19 25.11 77.44 25.93"/><path class="cls-2" d="M159.3,44.29l.63,1.83c.14.41-.12.84-.8,1.29a7.33,7.33,0,0,1-1.73.83,7.72,7.72,0,0,1-1.57.38,2.08,2.08,0,0,1-1.07-.09,1.89,1.89,0,0,1-.61.58,10.54,10.54,0,0,1-1.86.77q-1.22.42-1.5.54c-.27.12-.43.22-.48.33l-.26.09-.29-.84c.25-.12.52-.23.81-.34s.74-.27,1.24-.45a7.68,7.68,0,0,0,1.48-.6.52.52,0,0,0,.27-.65l-.27-.78-4,1.39-.25-.74Zm-4,3.19a.5.5,0,0,0,.48.32,3.53,3.53,0,0,0,1.15-.24,4,4,0,0,0,.87-.4c.27-.2.37-.39.31-.58l-.33-.94-2.78,1Z" transform="translate(-79.57 -17.9)"/><path class="cls-2" d="M153.51,51a3.51,3.51,0,0,0-1,.38c-.39.22-.55.48-.48.79a.61.61,0,0,0,.38.46,1.87,1.87,0,0,0,1.14,0,1.57,1.57,0,0,0,.83-.39,1.38,1.38,0,0,0,.32-.57l.19-.46a5.41,5.41,0,0,1,.22-.52,2.41,2.41,0,0,1,.42-.48,3.08,3.08,0,0,1,.81-.46,8.65,8.65,0,0,1,1.39-.42,7.25,7.25,0,0,1,2.13-.2c.85.06,1.34.36,1.45.89s-.21,1-1,1.42a7.53,7.53,0,0,1-2.13.79l-.16-.73a4.47,4.47,0,0,0,.93-.35c.37-.22.53-.48.47-.77a.55.55,0,0,0-.37-.37,1.92,1.92,0,0,0-1,0,2,2,0,0,0-.76.31,1,1,0,0,0-.24.31v0l-.44,1.05a1.86,1.86,0,0,1-.67.85,7.25,7.25,0,0,1-5,.8,1.06,1.06,0,0,1-.73-.73q-.21-.9,1-1.59a7.67,7.67,0,0,1,2.17-.79Z" transform="translate(-79.57 -17.9)"/><polygon class="cls-2" points="71.22 36.5 71.33 37.29 82.11 35.74 82 34.95 71.22 36.5"/><polygon class="cls-2" points="80.34 36.94 80.42 38.11 71.49 38.73 71.54 39.52 80.48 38.91 80.56 40.08 82.49 39.94 82.27 36.81 80.34 36.94"/><polygon class="cls-2" points="75.69 42.03 71.59 41.9 71.56 42.69 75.63 42.83 82.4 44.3 82.43 43.41 77.69 42.5 82.48 41.84 82.51 40.91 75.69 42.03"/><path class="cls-2" d="M131.05,38.92l2.22,1.24.55-1-1.32-.74,2.17-3.88-.9-.5Zm-.62-4.43L130.15,36l-.52-.2Zm-.71,3.81,1.07.41.76-5.67-1-.36-3.21,4.74,1,.37.67-1.07.9.34Zm-3.66-1.21,1,.2,1-5.48-1-.19-.59,3.08L126,31.41l-1-.2-1,5.48,1,.19.57-3Zm-4.33-1.54c-.49,0-.61-.5-.57-1.45l0-.71c0-1,.2-1.46.68-1.44s.59.54.56,1.48l0,.72c0,1-.21,1.42-.66,1.4m0,1.12c1,0,1.66-.71,1.72-2.44l0-.8c.07-1.73-.57-2.58-1.53-2.61s-1.67.76-1.73,2.48l0,.81c-.07,1.72.58,2.53,1.54,2.56m-3.21,0,1-.09L119,31l-1,.09ZM116,37l1-.19-.83-4.38,1.1-.21-.21-1.11-3.19.61.22,1.11,1.07-.2Zm-3.68-2.93.76,1.34-.53.18Zm1.92,3.37,1.08-.38-3.09-4.82-1,.34.61,5.69,1-.35-.19-1.25.92-.32Zm-3.56,1.44.89-.47L109,33.5l-.89.47,1.47,2.78-2.49-2.24-.9.47,2.6,4.93.91-.48-1.42-2.69Z" transform="translate(-79.57 -17.9)"/><path class="cls-2" d="M115.25,80.48l0-1.28,0-.53h-.74a.09.09,0,0,0-.09.09v.06a.88.88,0,0,1-1,.59.29.29,0,0,0-.26.3s0,.32.16.32h.87s.1.06.1.33V83h.09v.14a.1.1,0,0,0,.09.09h.64a.11.11,0,0,0,.1-.09Z" transform="translate(-79.57 -17.9)"/><path class="cls-2" d="M119,80.13a.92.92,0,1,1-.92-.91.92.92,0,0,1,.92.91m.91.93c.13-2.84-1.94-2.58-1.94-2.58a1.63,1.63,0,1,0,.91,3,.35.35,0,0,1,0,.06.93.93,0,0,1-.3.8c-.74.79-1.43-.19-1.43-.19h-.78c.13.7.87,1.33,2.14,1.12s1.39-2.2,1.39-2.2" transform="translate(-79.57 -17.9)"/><path class="cls-2" d="M123,82.31l-.15,0,.21.15Zm.06-.87,0,.08-.06,0-1.19,0-.06,0v-.1a2,2,0,0,0,.16-.24l1-1.2.11-.05.1.07Zm1.52.73v-.53a.09.09,0,0,0-.09-.09H124l-.11,0,0-.12v-2.6a.1.1,0,0,0-.1-.1h-.66l0,0a.09.09,0,0,0-.11,0l-1.7,2.18a1.19,1.19,0,0,0-.18.25.94.94,0,0,0-.1.14.33.33,0,0,0-.06.27h0a.11.11,0,0,0,0,.06v.53a.11.11,0,0,0,.1.1h2v.92a.09.09,0,0,0,.09.09h.66a.1.1,0,0,0,.1-.09v-.75l.06-.11.12-.06h.4a.1.1,0,0,0,.09-.1" transform="translate(-79.57 -17.9)"/><path class="cls-2" d="M126.44,80.35s0-.09,0-.18a2.9,2.9,0,0,1,.09-.49c0-.19.26-.26.26-.26h1.66c.08,0,.09-.09.09-.09v-.5a.12.12,0,0,0-.11-.12H126.1c-.19,0-.19.22-.19.22s-.36,2-.37,2.12a.14.14,0,0,0,.11.15h.68c1-.67,1.44.11,1.44.11a.86.86,0,0,1-.59,1.36.84.84,0,0,1-1-.51.25.25,0,0,0-.11-.12h-.66a.16.16,0,0,0-.14.08,1.8,1.8,0,0,0,3.52-.38c-.17-2.14-2.4-1.39-2.4-1.39" transform="translate(-79.57 -17.9)"/><path class="cls-2" d="M110.67,85.74v1.08s0,.28.15.23l5.3-1.22s2.71-1,3.06,2.24c0,.1.07.11.07.11h3s.1-.09.1-.17a2.45,2.45,0,0,1,3.22-2.23c3,.62,5.17,1.25,5.17,1.25V85.47l-4.56-1.15s-3.72-1.55-5.42,2.75c0,0-1.1-3.91-5-2.9s-4.86,1.23-4.86,1.23-.23.07-.23.15a1.31,1.31,0,0,0,0,.19" transform="translate(-79.57 -17.9)"/><path class="cls-2" d="M148.44,80.61c-.26-.17-1,.22-1.41.77-.17.22-.52.75-.14,1.12.49.21,1.21-.29,1.56-.87C148.71,81.2,148.71,80.82,148.44,80.61Z" transform="translate(-79.57 -17.9)"/><path class="cls-2" d="M91,83c-.14-.24-.22-.36-.31-.49L90.32,82c-.16-.28-.33-.55-.5-.82s-.18-.3-.28-.45a1,1,0,0,0-.08-.14c-.15-.25-.31-.52-.49-.58s-.29.09-.47.22a.08.08,0,0,0,0,0,.37.37,0,0,0,0,.11c.38.73.79,1.44,1.34,2.31l0,.07a9.38,9.38,0,0,0,1.05,1.46.24.24,0,0,0,.09.06.85.85,0,0,0,.42-.2.24.24,0,0,0,.08-.13,2.24,2.24,0,0,0-.41-.74C91,83.12,91,83,91,83Z" transform="translate(-79.57 -17.9)"/><path class="cls-2" d="M119.06,94.63h-.2a1,1,0,0,0-.89.43,1.2,1.2,0,0,0,.08,1.25.79.79,0,0,0,.82.37,1.14,1.14,0,0,0,.78-1.16A.81.81,0,0,0,119.06,94.63Z" transform="translate(-79.57 -17.9)"/><path class="cls-2" d="M148.62,62.24c-8,.68-8.93,7-17.27,3-8.59-4.15-10.89-3.81-16.76-2.12-4.17,1.18-7.32,6-14.13,1.44-4.85-2.8-8.17-2.88-10.38-2.8a11.24,11.24,0,0,0-5.16,1.57,15.6,15.6,0,0,0-4.47,3.76S82.88,83,97.11,92.82a41.26,41.26,0,0,0,45.61,1.38,40.42,40.42,0,0,0,18.37-25.43v-.06S156.62,61.56,148.62,62.24ZM151.48,71c.13-.29.25-.59.37-.88s.19-.48.29-.71.2-.42.29-.59a4.34,4.34,0,0,0,.41-1,.46.46,0,0,1,.26-.56c.24-.08.48.14.69.34a1.8,1.8,0,0,0,.24.2l.84.45.1,0a4.33,4.33,0,0,1,1.3.88l.09.11a.71.71,0,0,1,.13.94h0c-.14.2-.56-.08-1.15-.46a6,6,0,0,0-1.89-1s-.13,0-.17,0L151.43,73l-.1.24c-.16.41-.35.87-.83,1h0a.25.25,0,0,1-.2-.12c-.19-.36.34-1.39.81-2.31C151.24,71.51,151.38,71.24,151.48,71Zm-55,5.86c3.23,1.66,8.26,2,8.26,2,6.38.18,9.35-1.25,13.7-3.72,3.57-2,6,.92,8.59,2.11a23.43,23.43,0,0,0,18,0s-8,12.18-23.57,12.11C103.88,89.27,96.46,76.89,96.46,76.89Zm23.9,15.19c-.08.11-.3.12-.33.13h-2.34c-.55,0-.56-.29-.56-.31h0c.12-.48,1.19-.46,2.06-.35l.28,0c.39,0,.82,0,.91.4A.12.12,0,0,1,120.36,92.08Zm-20.28-7.74.19.16c.34.3.64.55,1,.88.16.15.34.3.51.44a6.51,6.51,0,0,1,.61.54c.31.32.44.64.4.77a.09.09,0,0,1-.06.07h-.06a1.2,1.2,0,0,1-.52-.12,3.83,3.83,0,0,1-1-.78,5,5,0,0,0-.59-.53l-.54-.51c-.22-.2-.44-.37-.65-.53a4.43,4.43,0,0,1-1.27-1.31s0-.09,0-.13.1-.1.16-.12l0,0h0c.59-.07,1.07.42,1.49.84C99.85,84.12,100,84.24,100.08,84.34Zm-.21-1.42c.24-.25.61.07.75.2l.43.35.32.25a7,7,0,0,1,.67.66l0,0c.48.5.69.82.63.94s0,0-.06,0h-.11a2.49,2.49,0,0,1-1.27-.68l-.13-.1L101,84.5a4,4,0,0,1-.93-.9v0C100,83.44,99.72,83.1,99.87,82.92Zm44.35-2.81h0a5.3,5.3,0,0,0,.38-.43l.22-.25a8.18,8.18,0,0,1,.68-.64c.47-.42.77-.62.9-.58l0,0h0v0c.07.41-.33.86-.68,1.27l-.1.11a1.47,1.47,0,0,0-.1.13,4.08,4.08,0,0,1-.9.86l0,0a1,1,0,0,1-.48.19.19.19,0,0,1-.14,0,.26.26,0,0,1-.09-.17A.94.94,0,0,1,144.22,80.11Zm-18.65-6.52c-3.07-2.2-7.07-1.78-8.94-.26-12.25,7.88-22.81-.84-22.81-.84l-1.19-2.8a3.6,3.6,0,0,1,1,0,14.35,14.35,0,0,1,2.63,1.45c2.21,1.69,9.53,4.48,16,1.69,9.79-5.93,12.77-2.38,15.66-.59,8.85,4.06,14.63,1.09,17.44-.77S148.71,70,148.71,70l.26.17a13,13,0,0,1-1.2,2.71C137.31,79.69,128.63,75.79,125.57,73.59Zm23,2.61h0c.3,0,.67.39,1,.77a2.55,2.55,0,0,0,.6.53,1.16,1.16,0,0,0,.4-.35c.22-.25.46-.54.81-.34h0c.19.3-.08.55-.33.79a1.63,1.63,0,0,0-.35.41,1.75,1.75,0,0,0,.57.58c.34.25.67.49.44.9h0a.57.57,0,0,1-.42.18c-.42,0-.9-.44-1.34-.83l-.37-.32c-.15-.13-.34-.27-.54-.42-.6-.45-1.22-.91-1.21-1.25S148.1,76.21,148.57,76.2Zm-56-11.84c3.23,0,5.7,2.2,7.91,3.3,4.42,2,7.06,1.27,9.79.42s4.34-3,9.53-3.47,8.76,2,11.57,3.47a11.79,11.79,0,0,0,10.72-.5c3.32-2.71,8.62-2.9,8.62-2.9l-.56,2.48a17.8,17.8,0,0,0-5.25,1.43c-3.74,2.71-6.8,3-10.47,2.88s-6-2.46-8.84-3.64a12.88,12.88,0,0,0-7.92-.42c-2,.5-5.27,2.7-8,3.55a14.6,14.6,0,0,1-11.48-1.78c-3.92-2.54-6.47-2.31-6.47-2.31a16.56,16.56,0,0,1-.52-2.51ZM85.23,66.3a.38.38,0,0,1,.3-.08,2.22,2.22,0,0,1,1,1.21s0,.09.07.14a9.65,9.65,0,0,1,.39.89c.09.23.18.47.29.7l0,.13c.53,1.09,1.19,2.72,1.28,2.92A4.1,4.1,0,0,0,90.14,72a4.84,4.84,0,0,1,.49-.14,1.33,1.33,0,0,0-.28-.93,2.75,2.75,0,0,1-.2-.38c-.07-.14-1.66-3.44-1.74-3.75a.41.41,0,0,1,0-.3.29.29,0,0,1,.14-.09c.21-.17.56.15.58.17a10.86,10.86,0,0,1,1.49,3l.06.15.87,1.91a.71.71,0,0,1,.34.39.46.46,0,0,1-.07.39,3.22,3.22,0,0,1-1.33.64,3,3,0,0,1-1.49.11,4.47,4.47,0,0,0,.48,1l.24.41,0,0,0,0a1.82,1.82,0,0,1-.59.12.66.66,0,0,1-.32-.07c-.34-.17-.46-.62-.6-1.14,0-.15-.09-.31-.14-.47l-.61-1.75a2.71,2.71,0,0,1-1.45.33s-.36-.17-.31-.45a1.16,1.16,0,0,1,.88-.79l.11,0c.09,0,.27-.07.29-.12s0,0,0,0h0l-1.81-3.54A.38.38,0,0,1,85.23,66.3Zm1.6,8v0l-.14.12a6.69,6.69,0,0,1-2.16.83h0a.72.72,0,0,1-.49-.24.34.34,0,0,1,0-.32.63.63,0,0,1,.36-.44l1.24-.59a11.64,11.64,0,0,0-1.12-2.87,17.77,17.77,0,0,1-.87-2,.39.39,0,0,1,.22-.54.26.26,0,0,1,.18,0,.69.69,0,0,1,.34.42l1.81,4.19a4.5,4.5,0,0,0,.25.41A1.44,1.44,0,0,1,86.83,74.35ZM93.18,84l-.11.1a13.53,13.53,0,0,1-1.61,1.06l-.17.08a.65.65,0,0,1-.34.13l-.13,0c-.13,0-.29-.33-.45-.61a.73.73,0,0,0-.05-.09c-.25-.43-.44-.7-.63-1s-.31-.45-.5-.76l-1.1-1.72a2.3,2.3,0,0,0-.48-.57.7.7,0,0,1-.32-.39.47.47,0,0,1,.06-.33,1.14,1.14,0,0,1,.45-.35l.23-.15.74-.58a2.73,2.73,0,0,1,.81-.46h0a.71.71,0,0,1,.48.19h0a.62.62,0,0,1,0,.66,1,1,0,0,1-.3.27l-.12.1c.12.24,1.52,2.37,1.68,2.62a3.36,3.36,0,0,1,.23.39,3,3,0,0,0,.62.87c.21.17.43,0,.64-.12s.33-.22.46-.11a.57.57,0,0,1,.19.38A.67.67,0,0,1,93.18,84Zm.29-2.24h-.12A1.78,1.78,0,0,1,92.13,81c-.09-.13-.15-.24-.22-.33a5.38,5.38,0,0,0-.43-.6,6.22,6.22,0,0,1-.52-.78c-.12-.19-.23-.37-.35-.54l0,0a1.58,1.58,0,0,1-.36-.79.63.63,0,0,1,.27-.62l.3-.16a4,4,0,0,0,.41-.24,2.18,2.18,0,0,0,.28-.25,2.61,2.61,0,0,1,.3-.27.44.44,0,0,1,.34-.07c.21.06.35.34.46.58a2,2,0,0,0,.11.21,14.93,14.93,0,0,0,.93,1.42l.11.16c.14.22.39.6.57.6h0a1.23,1.23,0,0,0,.77-.42c.1-.15-.16-.55-.31-.79a.73.73,0,0,0-.09-.13,11.53,11.53,0,0,0-1.34-1.75.79.79,0,0,1-.21-.73c0-.16.12-.26.23-.27.31,0,.74.57,1.13,1.17a.48.48,0,0,0,.08.12l1,1.47.18.25a1.06,1.06,0,0,1,.34,1c-.07.26-.23.35-.45.47l-.19.12a2,2,0,0,0-.32.17,1.73,1.73,0,0,1-.33.17l-.17.08a1.56,1.56,0,0,1-.26.11.49.49,0,0,1-.27,0,1.47,1.47,0,0,1-.58-.65c-.26-.48-.92-1.49-1.44-2.21l-.83.51s-.08,0-.08.07V78a2.22,2.22,0,0,0,.27.48l0,.07c.35.53.71,1,1.06,1.52.21.28.31.41.46.58l.39.49.09.11a2.76,2.76,0,0,1,.3.37l0,0,0,0a1,1,0,0,1-.19,0ZM94,83.34h0a.59.59,0,0,1-.36-.38.32.32,0,0,1,.13-.37h0l1-.72,1-.75c.07-.05.14-.12.22-.19.39-.33.91-.77,1.34-.44a.5.5,0,0,1,.21.39.63.63,0,0,1-.13.31,3.59,3.59,0,0,1-.87.72l-.29.19-.78.56a3.16,3.16,0,0,1-1.44.68Zm6.46,9.33a1.28,1.28,0,0,1-.6.16c-.41,0-.69-.31-1-.69l-.42-.44a24.25,24.25,0,0,0-2.79-2.44.6.6,0,0,0-.3-.07c-.27,0-.61,0-.68-.52h0c.29-.56,1.29-1.85,1.92-1.8q.3,0,.42.39c.12.34-.1.57-.32.75l-.1.08-.26.21h0c-.12.08-.26.18-.22.32s.28.3.46.42l.15.1a5.87,5.87,0,0,1,.77.68c.2.21.42.4.62.58l.23.21c.2.18.42.36.63.53a12.71,12.71,0,0,1,1.55,1.48l0,0Zm-.57-4a1,1,0,0,1-.24,0A3.77,3.77,0,0,1,98.17,88a3,3,0,0,1-1.06-1.32c-.12-.35-.22-1,0-1.31a1.69,1.69,0,0,1,1.59-.41,2.87,2.87,0,0,1,1.38.75l.16.18,0,0a4.79,4.79,0,0,1,.76,1.24,1.12,1.12,0,0,1,.11.74,1.27,1.27,0,0,1-.56.65.05.05,0,0,1,0,0l0,0A1.48,1.48,0,0,1,99.93,88.71Zm4.93-1.47-.1.09-.27.28a.86.86,0,0,1-.13.14q-.19.21-.42.42a5.19,5.19,0,0,0-.41.42c0,.19.2.38.39.56s.39.36.37.55a.39.39,0,0,1-.2.28h0c-.3.06-.48-.15-.66-.36a1.09,1.09,0,0,0-.37-.32,2.07,2.07,0,0,0-.61.46,3.24,3.24,0,0,0-.29.34,3.31,3.31,0,0,1-.61.63,1.3,1.3,0,0,1-.64.24.58.58,0,0,1-.19,0,.35.35,0,0,1-.14-.35c0-.46.46-.83.84-1.15l.39-.36,2-2.14a3.78,3.78,0,0,1,.83-.7.35.35,0,0,1,.28,0c.19.07.3.34.32.38C105.36,86.8,105.05,87.08,104.86,87.24Zm6.81,8.64a6.1,6.1,0,0,1-1,2h0a.79.79,0,0,1-.41.15h-.09a.34.34,0,0,1-.2-.23.72.72,0,0,1,0-.56l.49-1.22a10.89,10.89,0,0,0-2.67-1.32,16.27,16.27,0,0,1-1.92-.85.38.38,0,0,1-.19-.53.2.2,0,0,1,.12-.12.64.64,0,0,1,.52.07l4,1.8a2.65,2.65,0,0,0,.45.14,1.36,1.36,0,0,1,.92.49h0Zm1.75-2.1.43.13,0,0,0,0a1.07,1.07,0,0,1-.61.63.57.57,0,0,1-.18,0,2.27,2.27,0,0,1-1-.44l-.41-.25-1.57-.85a2.6,2.6,0,0,1-.82,1.18s-.37.11-.52-.12a1.14,1.14,0,0,1,.11-1.13.35.35,0,0,1,.06-.09c0-.08.15-.23.14-.28l0,0h0l-3.6-1.34a.36.36,0,0,1-.16-.28.38.38,0,0,1,.16-.25h0a2.15,2.15,0,0,1,1.54.18l.13,0c.31.11.59.25.87.38s.43.22.65.31l.13.06c1.08.43,2.61,1.15,2.81,1.25a4.07,4.07,0,0,0,.9-1.13c.08-.14.16-.27.26-.42a1.33,1.33,0,0,0-.81-.48,2.58,2.58,0,0,1-.39-.14c-.14,0-3.43-1.36-3.69-1.53a.36.36,0,0,1-.17-.23.24.24,0,0,1,0-.15c0-.26.5-.27.52-.27h0a10.64,10.64,0,0,1,3,1.16l.12.06,1.87.79a.73.73,0,0,1,.5.06.42.42,0,0,1,.19.32,3.05,3.05,0,0,1-.52,1.32,2.84,2.84,0,0,1-1,1A4.13,4.13,0,0,0,113.42,93.78ZM120.77,96a1.81,1.81,0,0,1-1,1.19,2.52,2.52,0,0,1-1.19.25,2.65,2.65,0,0,1-1.14-.23,2,2,0,0,1-.63-2.41,2.24,2.24,0,0,1,.63-.64,2.4,2.4,0,0,1,.87-.3.42.42,0,0,1,.36-.38.48.48,0,0,1,.54.32,2.51,2.51,0,0,1,1.06.5l.09.11A2,2,0,0,1,120.77,96Zm.66-2.8h0a3.29,3.29,0,0,1-1.24.21l-.43,0a5.76,5.76,0,0,0-.72,0c-.21,0-2-.06-2.21-.12s-.5,0-.64-.24a.19.19,0,0,1,0-.18.22.22,0,0,1,.06-.16.27.27,0,0,1,.22-.08s1.89-.06,4.08,0a5.42,5.42,0,0,1,.78.13.34.34,0,0,1,.22.18A.24.24,0,0,1,121.43,93.23Zm3.4-1.29c0,.12,0,.23,0,.32,0,.4,0,.79,0,1.17,0,1.17-.05,2.27-.05,3.48,0,.14,0,.3,0,.47,0,.57.06,1.22-.23,1.52a.58.58,0,0,1-.43.17h0c-.49-.06-.45-1.14-.41-2.4a12.63,12.63,0,0,0,0-2.08,1.76,1.76,0,0,0-.94,0s-.15.12-.06,1.22v0c0,.13,0,.26,0,.39a8.33,8.33,0,0,1,0,1.41c0,.39-.13.62-.31.74a.58.58,0,0,1-.51,0c-.25-.07-.27-.91-.27-2,0-.17,0-.34,0-.48v-.8c0-.61,0-1.23,0-1.88l0-.37v-.25c0-.6,0-1.35.35-1.59a.77.77,0,0,1,.75.07h0s.09.07.08.32,0,2-.07,2.28c.2.2.54.12.89,0l0,0,0-1.51s-.09-1.43.35-1.61a.73.73,0,0,1,.64.12C124.9,91,124.86,91.51,124.83,91.94Zm2.22.09V91.9c.07-1.17,1.44-1.49,1.66-1.53a.46.46,0,0,1,.3-.46s.4-.06.52.26l.31,0H130a1.69,1.69,0,0,1,1.78,1.08,1.86,1.86,0,0,1-.15,1.74,3,3,0,0,1-2.41,1.28h-.14a2.22,2.22,0,0,1-1.45-.6A2.08,2.08,0,0,1,127.05,92Zm7.86,4.36a7.23,7.23,0,0,1-4.14,1.39,3,3,0,0,1-1-.15,1.11,1.11,0,0,1-.78-.86c-.15-1,1.34-1.76,2.4-2.08a.66.66,0,0,1,.28-.45.57.57,0,0,1,.79.15h0l.18,0c1.27-.2,2.58-.41,2.83.87A1.3,1.3,0,0,1,134.91,96.39Zm.94-4.51h0c-.11.24-.47.31-.82.38l-.46.11a1.91,1.91,0,0,0,.05.26c.1.4.25,1-.2,1.17h-.13a.43.43,0,0,1-.22-.06c-.34-.21-.5-.89-.64-1.48,0-.17-.08-.33-.12-.47l-.71-2.56a.5.5,0,0,1,.35-.6.73.73,0,0,1,.51,0,.38.38,0,0,1,.15.25l.33,1.16a2.18,2.18,0,0,0,.59-.11c.28-.07.55-.14.71,0a.3.3,0,0,1,.13.19.36.36,0,0,1-.05.25c-.12.18-.46.25-.76.3a3,3,0,0,0-.42.11c0,.14.08.29.12.45s.08.3.11.43a2.93,2.93,0,0,0,.42-.11c.38-.1.76-.21,1,0A.42.42,0,0,1,135.85,91.88Zm6.94-2.9-.07.73a.31.31,0,0,1-.08.2c-.42.27-.84.48-1.23.68a9.94,9.94,0,0,0-1.38.78,3,3,0,0,0-.31.31,1,1,0,0,1-.76.46.35.35,0,0,1-.3-.16.85.85,0,0,1,0-.64L137.77,90l-1-1.37a.5.5,0,0,1-.4-.14.45.45,0,0,1-.11-.31h0c.17-.4.78-.88,1.87-1.49l.16-.09c.51-.29,1-.56,1.31-.21h0c.1.31-.1.44-.59.75l-.2.12c-.14.1-.32.19-.48.29a5.59,5.59,0,0,0-.6.35s0,0,0,0,0,0,0,0c.17.28,1.63,2.63,1.72,2.79h0c.67-.36,1.17-.67,1.66-1a17.38,17.38,0,0,1,1.58-.93,0,0,0,0,1,.06,0S142.81,88.87,142.79,89Zm4.18,1.1h0a.43.43,0,0,1-.35.2h0c-.29,0-.56-.34-.71-.53l0-.06a16,16,0,0,1-1.24-1.87c-.27-.46-.53-.89-.8-1.27a2.57,2.57,0,0,0-.38.23,3.3,3.3,0,0,1-.49.28,10.63,10.63,0,0,0,1,1.56c.59.85,1.1,1.57.87,2.07h0a.38.38,0,0,1-.29.15h0a.82.82,0,0,1-.47-.31h0l-3.3-5.06a1.81,1.81,0,0,0-.19-.29c-.19-.27-.39-.55-.06-.9a.68.68,0,0,1,.51-.15c.29.07.47.41.65.75l.18.32a6.2,6.2,0,0,1,.33.57,4.55,4.55,0,0,0,.44.69l.34-.22a2.44,2.44,0,0,0,.47-.33,7.06,7.06,0,0,0-.66-1.07c-.49-.7-1-1.43-.68-2h0a.68.68,0,0,1,.48-.18.45.45,0,0,1,.32.2c.55.93,1.12,1.83,1.67,2.7.75,1.18,1.46,2.3,2.09,3.46a1.48,1.48,0,0,0,.13.21A1,1,0,0,1,147,90.08Zm.52-6.71a2.53,2.53,0,0,1-.72.11.82.82,0,0,1-.54-.15,1.53,1.53,0,0,1-.35-1.46,4.46,4.46,0,0,1,.49-.91.08.08,0,0,1-.08,0,.5.5,0,0,1,0-.21h0c-.2.2-.37.41-.53.6a4.33,4.33,0,0,1-1.29,1.16.13.13,0,0,1-.13,0c-.07,0-.09-.09-.11-.15s0,0,0,0h0c0-.55.43-1,.85-1.36.13-.11.24-.22.34-.32.35-.37.65-.69,1-1.07.15-.15.3-.31.43-.46s.36-.4.54-.57a1.11,1.11,0,0,1,.76-.36s.05,0,.05.07a1,1,0,0,1-.12.52,3.45,3.45,0,0,1-.79,1c-.17.17-.35.34-.51.53l-.16.15a.24.24,0,0,1,.12.07l.06,0,0,0,.05,0a4.72,4.72,0,0,1,1.2-.68,1.09,1.09,0,0,1,.71-.1,1.22,1.22,0,0,1,.62.52l0,.07a1.23,1.23,0,0,1,.09.8,3.7,3.7,0,0,1-.75,1.39,3.06,3.06,0,0,1-1.29,1Zm6.92-1.52c-.47.34-.92-.06-1.36-.46a3.17,3.17,0,0,0-.62-.47s-.12,0-.18.11l-3.43,3.74a.32.32,0,0,1-.23.11.14.14,0,0,1-.09,0h0c-.35-.51,0-.88.23-1.2l.16-.2a10.67,10.67,0,0,1,.71-.82l.21-.23,2-2.19c.12-.51.32-.66.36-.68.22-.2.54.08.55.09s1.27,1.18,1.75,1.7A.44.44,0,0,1,154.41,81.85Zm5-12.56a29.7,29.7,0,0,0-2.91,6.25c-.05.14-.09.29-.14.43a2.15,2.15,0,0,1-.94,1.48h-.07a.16.16,0,0,1-.11,0c-.24-.28,0-1.71.28-2.2a5.83,5.83,0,0,0-.81-.36c-.65-.25-1.31-.5-1.44-.93a.69.69,0,0,1,.17-.6.59.59,0,0,1,.36-.25.62.62,0,0,1,.48.12,6.25,6.25,0,0,0,.6.53,4.47,4.47,0,0,0,1.2.4s.1,0,.16-.12a1.83,1.83,0,0,0,.31-.94c-.13-.22-.57-.37-1-.53a2.58,2.58,0,0,1-1.38-.78h0a.83.83,0,0,1,.1-.62.71.71,0,0,1,.58-.25,1.58,1.58,0,0,1,.83.42s.91.65,1.29.58a.78.78,0,0,0,.2-.33,34.54,34.54,0,0,0,1.6-3.66h0s0-.1.08-.11,0,0,.09,0h0l.52,1.36Z" transform="translate(-79.57 -17.9)"/><path class="cls-2" d="M99.36,86.16c-.25-.2-.88-.62-1.32-.18-.21.5.29,1.19.88,1.55.4.24.92.37,1.2,0S99.92,86.61,99.36,86.16Z" transform="translate(-79.57 -17.9)"/><path class="cls-2" d="M134.14,95.12c-.86-.36-3.06.41-3.52.74-.29.22-.65.48-.51.86s1.27.39,2.15.16c1.12-.29,2.28-.9,2.21-1.37A.5.5,0,0,0,134.14,95.12Z" transform="translate(-79.57 -17.9)"/><path class="cls-2" d="M130.56,92.88a1.2,1.2,0,0,0,.19-1.47,1.63,1.63,0,0,0-2-.31,1.26,1.26,0,0,0-.63,1.09,1.14,1.14,0,0,0,.47,1A1.7,1.7,0,0,0,130.56,92.88Z" transform="translate(-79.57 -17.9)"/><polygon class="cls-2" points="15.42 97.67 15.42 95.7 20.65 95.7 20.65 93.38 16.9 93.38 16.9 86.43 26.61 86.43 26.61 88.4 19.07 88.4 19.07 91.44 26.74 91.44 26.74 93.38 22.8 93.38 22.8 95.7 28.09 95.7 28.09 97.67 15.42 97.67"/><path class="cls-2" d="M95.49,114.09h11.68v1H95.49ZM97,104.82h8.72v1H98.15v4.45H97Zm0,5h8.85v1H97Zm3.75.42h1.17v4.23h-1.17Z" transform="translate(-79.57 -17.9)"/><path class="cls-2" d="M123.93,117.2v-7.57h-3v-1.95h3V103.3h2.15v13.9Zm-9.72-4.36.55-.27a4.3,4.3,0,0,0,1.18-.85,6.93,6.93,0,0,0,1-1.31,6.68,6.68,0,0,0,.65-1.56,5.7,5.7,0,0,0,.23-1.64v-2.8H120v2.8a5.71,5.71,0,0,0,.23,1.59,6,6,0,0,0,.65,1.49,6.24,6.24,0,0,0,1,1.23,4.33,4.33,0,0,0,1.18.82l.54.26-1.32,1.77-.37-.19a6.1,6.1,0,0,1-1.55-1.16,7.51,7.51,0,0,1-1.22-1.65l-.18-.35-.24.48a8.41,8.41,0,0,1-1.21,1.7,6,6,0,0,1-1.54,1.21l-.37.19Z" transform="translate(-79.57 -17.9)"/><path class="cls-2" d="M118.31,104.91h1v2.3a8.31,8.31,0,0,1-.27,2.11,8.23,8.23,0,0,1-1.88,3.54,5.12,5.12,0,0,1-1.42,1.11l-.74-1a4.64,4.64,0,0,0,1.32-1,7.06,7.06,0,0,0,1.06-1.4,7.42,7.42,0,0,0,.71-1.67,6.71,6.71,0,0,0,.25-1.78Zm.24,0h1v2.3a6.4,6.4,0,0,0,.25,1.73,7,7,0,0,0,.71,1.6,6.66,6.66,0,0,0,1.06,1.34,4.91,4.91,0,0,0,1.31.91l-.72.95a5.47,5.47,0,0,1-1.42-1.07,6.84,6.84,0,0,1-1.14-1.54,8.7,8.7,0,0,1-.74-1.86,8.31,8.31,0,0,1-.26-2.06Zm2.88,3.26H125v1h-3.58Zm3-4.38h1.17v12.92h-1.17Z" transform="translate(-79.57 -17.9)"/><path class="cls-2" d="M135.88,116.9v-4.78H138V115h7.39v2Zm7-2.91v-2.6l-.21,0c-.89.16-1.83.27-2.79.35s-1.9.12-2.8.14l-2.5,0h-.43l-.26-2h.56l2.23,0v-2.78h2.16v2.71l.91,0,1.13-.09-1.35-.13.11-.53a14.52,14.52,0,0,0,.29-2.11c0-.25,0-.49,0-.71h-5.22v-2h7.37v1.18c0,.42,0,1,0,1.61a15.82,15.82,0,0,1-.3,2.3l-.06.28.74-.09.42-.06V103.3H145v4.19h1.83v2H145V114Z" transform="translate(-79.57 -17.9)"/><path class="cls-2" d="M134.53,111.45l-.13-1,2.52,0c.93,0,1.86-.06,2.81-.12s1.87-.15,2.74-.26l.07.87c-.88.15-1.8.26-2.75.34s-1.87.12-2.77.14Zm.66-6.66h5.7v1h-5.7Zm1.18,7.83h1.18v3.1h-1.18Zm0,2.82h8.57v1h-8.57Zm.75-7.77h1.17v3.22h-1.17Zm3.3-2.88h1.15v.69c0,.42,0,1,0,1.59a15.17,15.17,0,0,1-.3,2.23l-1.17-.12a12.89,12.89,0,0,0,.3-2.18c0-.6,0-1.11,0-1.52Zm2.9-1h1.2v9.71h-1.2ZM144,108h2.38v1H144Z" transform="translate(-79.57 -17.9)"/></svg>