<?xml version="1.0" encoding="UTF-8"?>
<svg xmlns="http://www.w3.org/2000/svg"
     xml:space="preserve"
     width="2.83094in" height="2.19141in"
     version="1.0"
     viewBox="0 0 529.64 409.99"
     xmlns:xlink="http://www.w3.org/1999/xlink"
     xmlns:xodm="http://www.corel.com/coreldraw/odm/2003"
     style="shape-rendering:geometricPrecision; text-rendering:geometricPrecision; image-rendering:optimizeQuality; fill-rule:evenodd; clip-rule:evenodd">

  <g id="Layer_x0020_1">
    <metadata id="CorelCorpID_0Corel-Layer"/>
    <path fill="currentColor" d="M59.28 0l411.08 0c32.6,0 59.28,26.68 59.28,59.28l0 291.43c0,32.6 -26.68,59.28 -59.28,59.28l-411.08 0c-32.6,0 -59.28,-26.68 -59.28,-59.28l0 -291.43c0,-32.6 26.68,-59.28 59.28,-59.28zm205.54 378.69l0 -346.92 204.77 0c15.55,0 28.27,12.72 28.27,28.27l0 290.37c0,15.55 -12.72,28.27 -28.27,28.27l-204.77 0zm-163.7 -125.57l-11.78 29.81 -42.29 0 69.79 -161.78 42.29 0 68.18 161.78 -43.92 0 -11.55 -29.81 -70.72 0zm35.59 -91.06l-23.57 59.86 46.69 0 -23.11 -59.86zm311.06 -37.09l-115.97 0 0 31.09 77.51 0c-6.75,52.59 -36.53,88.71 -91.99,116.51l21.32 28.97c82.23,-40.31 109.13,-103.06 109.13,-176.57z"/>
  </g>
</svg>