<svg id="Layer_2" height="512" viewBox="0 0 512 512" width="512" xmlns="http://www.w3.org/2000/svg" xmlns:xlink="http://www.w3.org/1999/xlink" data-name="Layer 2"><linearGradient id="linear-gradient" gradientTransform="matrix(0 1 -1 0 512 0)" gradientUnits="userSpaceOnUse" x1="43.93" x2="468.07" y1="43.93" y2="468.07"><stop offset="0" stop-color="#556189"/><stop offset="1" stop-color="#101627"/></linearGradient><g id="Icon"><g id="_66" data-name="66"><rect id="Background" fill="url(#linear-gradient)" height="512" rx="150" transform="matrix(0 -1 1 0 0 512)" width="512"/><g fill="#fff"><path d="m283.21 328.53 47.53-47.53h-129.52c-13.81 0-25-11.19-25-25 0-13.81 11.19-25 25-25h129.51s-47.53-47.53-47.53-47.53c-9.76-9.76-9.76-25.59 0-35.36 9.76-9.76 25.59-9.76 35.36 0l90.21 90.21c9.76 9.76 9.76 25.59 0 35.36l-90.21 90.21c-9.76 9.76-25.59 9.76-35.36 0-9.76-9.76-9.76-25.59 0-35.36z"/><path d="m240.91 116c0-13.81-11.19-25-25-25h-70c-27.61 0-50 22.39-50 50v230c0 27.61 22.39 50 50 50h70c13.81 0 25-11.19 25-25 0-13.81-11.19-25-25-25h-57.5c-6.9 0-12.5-5.6-12.5-12.5v-205c0-6.9 5.6-12.5 12.5-12.5h57.5c13.81 0 25-11.19 25-25z"/></g></g></g></svg>