<svg width="10" height="13" viewBox="0 0 10 13" fill="none" xmlns="http://www.w3.org/2000/svg">
<path d="M1.24996 12.4583C0.952043 12.4583 0.697008 12.3523 0.484855 12.1401C0.272702 11.928 0.166626 11.6729 0.166626 11.375V1.62501C0.166626 1.32709 0.272702 1.07205 0.484855 0.859901C0.697008 0.647748 0.952043 0.541672 1.24996 0.541672H6.66663C6.96454 0.541672 7.21958 0.647748 7.43173 0.859901C7.64388 1.07205 7.74996 1.32709 7.74996 1.62501V3.79167H6.66663V3.25H1.24996V9.75H6.66663V9.20834H7.74996V11.375C7.74996 11.6729 7.64388 11.928 7.43173 12.1401C7.21958 12.3523 6.96454 12.4583 6.66663 12.4583H1.24996ZM1.24996 10.8333V11.375H6.66663V10.8333H1.24996ZM6.09788 8.66667L3.79579 6.36459L4.55413 5.60626L6.09788 7.15L9.15829 4.08959L9.91663 4.84792L6.09788 8.66667ZM1.24996 2.16667H6.66663V1.62501H1.24996V2.16667Z" fill="currentColor"/>
</svg>
