<svg width="70" height="70" viewBox="0 0 70 70" fill="none" xmlns="http://www.w3.org/2000/svg">
<g clip-path="url(#clip0_1100_1794)">
<path fill-rule="evenodd" clip-rule="evenodd" d="M16.683 12.029V45.6649C16.683 47.4302 18.6161 49.356 20.3741 49.356H35.1386V57.5626H30.7618C28.3983 57.5626 28.3983 61.6622 30.7618 61.6622H55.9212C58.2847 61.6622 58.2847 57.5626 55.9212 57.5626H51.5444V49.356H66.3089C68.0742 49.356 70 47.4229 70 45.6649V12.029C70 10.2637 68.0742 8.33789 66.3089 8.33789H20.3741C18.6088 8.33789 16.683 10.2637 16.683 12.029Z" fill="currentColor"/>
<path fill-rule="evenodd" clip-rule="evenodd" d="M10.2564 55.6441C10.2418 55.5347 10.3658 54.9876 10.4168 54.8417C10.5408 54.4478 10.5481 54.4624 10.8326 54.1633C12.1822 52.7335 14.2174 53.7621 14.3268 55.3961C14.4362 57.0739 12.3353 58.2702 10.9639 56.9863C10.7743 56.8113 10.643 56.68 10.5336 56.4611C10.4971 56.3955 10.2637 55.6733 10.2564 55.6441ZM0 59.8823C0 60.7212 0.941017 61.6623 1.77991 61.6623H22.8324C23.6713 61.6623 24.6123 60.7212 24.6123 59.8823V53.4557H21.1911C16.1942 53.4557 12.5761 49.8448 12.5761 44.8407V32.943H0V59.875L0 59.8823Z" fill="currentColor"/>
<path fill-rule="evenodd" clip-rule="evenodd" d="M-2.95127e-05 14.2174V20.644H12.576V12.4375H1.77258C0.933693 12.4375 -0.00732422 13.3785 -0.00732422 14.2174H-2.95127e-05Z" fill="currentColor"/>
<path fill-rule="evenodd" clip-rule="evenodd" d="M0 28.8506H12.5761V24.7437H0V28.8506Z" fill="currentColor"/>
</g>
<defs>
<clipPath id="clip0_1100_1794">
<rect width="70" height="70" fill="white"/>
</clipPath>
</defs>
</svg>
