<?xml version="1.0" encoding="UTF-8"?>
<!DOCTYPE svg PUBLIC "-//W3C//DTD SVG 1.0//EN" "http://www.w3.org/TR/2001/REC-SVG-20010904/DTD/svg10.dtd">
<!-- Creator: CorelDRAW -->
<svg xmlns="http://www.w3.org/2000/svg" xml:space="preserve" width="0.808236in" height="0.808236in" version="1.0" style="shape-rendering:geometricPrecision; text-rendering:geometricPrecision; image-rendering:optimizeQuality; fill-rule:evenodd; clip-rule:evenodd"
viewBox="0 0 39.45 39.45"
 xmlns:xlink="http://www.w3.org/1999/xlink"
 xmlns:xodm="http://www.corel.com/coreldraw/odm/2003">
 <defs>
  <style type="text/css">
   <![CDATA[
    .fil0 {fill:currentColor;fill-rule:nonzero}
   ]]>
  </style>
 </defs>
 <g id="Layer_x0020_1">
  <metadata id="CorelCorpID_0Corel-Layer"/>
  <path class="fil0" d="M12.98 0l13.49 0c0.83,0 1.59,0.34 2.14,0.89 0.55,0.55 0.89,1.3 0.89,2.14l0 10.54c0,0.83 -0.34,1.59 -0.89,2.14 -0.55,0.55 -1.3,0.89 -2.14,0.89l-3.32 0 -2.62 3.68c-0.09,0.13 -0.21,0.24 -0.35,0.31 -0.14,0.07 -0.29,0.11 -0.45,0.11 -0.16,0 -0.31,-0.04 -0.45,-0.11 -0.14,-0.07 -0.26,-0.17 -0.35,-0.31l-2.62 -3.68 -3.32 0c-0.83,0 -1.59,-0.34 -2.14,-0.89 -0.55,-0.55 -0.89,-1.3 -0.89,-2.14l0 -10.54c0,-0.83 0.34,-1.59 0.89,-2.14 0.55,-0.55 1.3,-0.89 2.14,-0.89zm13.49 1.02l-13.49 0c-0.55,0 -1.05,0.23 -1.42,0.59 -0.36,0.36 -0.59,0.87 -0.59,1.42l0 10.54c0,0.55 0.23,1.05 0.59,1.42 0.36,0.36 0.87,0.59 1.42,0.59l3.58 0c0.16,0 0.31,0.08 0.41,0.21l2.75 3.87 2.73 -3.84c0.09,-0.15 0.25,-0.25 0.44,-0.25l3.58 0c0.55,0 1.05,-0.23 1.42,-0.59 0.36,-0.36 0.59,-0.87 0.59,-1.42l0 -10.54c0,-0.55 -0.23,-1.05 -0.59,-1.42 -0.36,-0.36 -0.87,-0.59 -1.42,-0.59zm-18.4 5.42c0.28,0 0.51,0.23 0.51,0.51 0,0.28 -0.23,0.51 -0.51,0.51l-4.9 0c-0.59,0 -1.13,0.24 -1.52,0.63 -0.39,0.39 -0.63,0.93 -0.63,1.52l0 8.59c0,0.59 0.24,1.13 0.63,1.52l0 0c0.39,0.39 0.93,0.63 1.52,0.63 0.28,0 0.51,0.23 0.51,0.51l0 3.44c0,0.1 0.03,0.18 0.07,0.25 0.05,0.07 0.12,0.13 0.21,0.17 0.09,0.04 0.18,0.05 0.26,0.03 0.09,-0.02 0.17,-0.06 0.23,-0.13l4.12 -4.12c0.1,-0.1 0.23,-0.15 0.36,-0.15l4.12 0c0.34,0 0.66,-0.08 0.94,-0.21 0.3,-0.15 0.55,-0.36 0.76,-0.61 0.17,-0.22 0.49,-0.26 0.71,-0.09 0.22,0.17 0.26,0.49 0.09,0.71 -0.3,0.38 -0.68,0.69 -1.11,0.9 -0.42,0.2 -0.89,0.32 -1.38,0.32l-3.91 0 -3.97 3.97c-0.22,0.21 -0.48,0.35 -0.75,0.41l-0 0c-0.28,0.05 -0.57,0.03 -0.85,-0.09 -0.28,-0.12 -0.51,-0.3 -0.66,-0.54 -0.16,-0.24 -0.25,-0.52 -0.25,-0.82l0 -2.97c-0.67,-0.11 -1.27,-0.43 -1.73,-0.89l-0 -0c-0.58,-0.58 -0.93,-1.37 -0.93,-2.24l0 -8.59c0,-0.87 0.36,-1.66 0.93,-2.24l0 -0c0.57,-0.57 1.37,-0.93 2.24,-0.93l4.9 0zm23.3 1.02c-0.28,0 -0.51,-0.23 -0.51,-0.51 0,-0.28 0.23,-0.51 0.51,-0.51l4.9 0c0.87,0 1.66,0.36 2.24,0.93l0 0c0.57,0.57 0.93,1.37 0.93,2.24l0 8.59c0,0.87 -0.36,1.66 -0.93,2.24l-0 0c-0.46,0.46 -1.06,0.78 -1.73,0.89l0 2.97c0,0.3 -0.09,0.58 -0.25,0.82 -0.16,0.24 -0.38,0.42 -0.66,0.54 -0.28,0.12 -0.57,0.14 -0.85,0.09l-0 -0c-0.28,-0.05 -0.54,-0.19 -0.75,-0.41l-3.97 -3.97 -3.91 0c-0.49,0 -0.96,-0.12 -1.38,-0.32 -0.44,-0.21 -0.82,-0.52 -1.11,-0.9 -0.17,-0.22 -0.13,-0.54 0.09,-0.71 0.22,-0.17 0.54,-0.13 0.71,0.09 0.2,0.26 0.46,0.47 0.76,0.61 0.28,0.14 0.6,0.22 0.94,0.22l4.12 0c0.13,0 0.26,0.05 0.36,0.15l4.12 4.12c0.07,0.07 0.15,0.11 0.23,0.13 0.09,0.02 0.18,0.01 0.26,-0.03 0.09,-0.04 0.16,-0.09 0.21,-0.17 0.05,-0.07 0.07,-0.16 0.07,-0.25l0 -3.44c0,-0.28 0.23,-0.51 0.51,-0.51 0.59,0 1.13,-0.24 1.52,-0.63l0 -0c0.39,-0.39 0.63,-0.93 0.63,-1.52l0 -8.59c0,-0.59 -0.24,-1.13 -0.63,-1.52 -0.39,-0.39 -0.93,-0.63 -1.52,-0.63l-4.9 0zm-16.78 -0.76c-0.28,0 -0.51,-0.23 -0.51,-0.51 0,-0.28 0.23,-0.51 0.51,-0.51l10.27 0c0.28,0 0.51,0.23 0.51,0.51 0,0.28 -0.23,0.51 -0.51,0.51l-10.27 0zm5.13 4.07c-0.28,0 -0.51,-0.23 -0.51,-0.51 0,-0.28 0.23,-0.51 0.51,-0.51l5.13 0c0.28,0 0.51,0.23 0.51,0.51 0,0.28 -0.23,0.51 -0.51,0.51l-5.13 0zm-5.41 28.18c0,0.28 -0.23,0.51 -0.51,0.51 -0.28,0 -0.51,-0.23 -0.51,-0.51l0 -3.1c0,-1.13 0.46,-2.17 1.21,-2.91 0.75,-0.75 1.78,-1.21 2.91,-1.21l4.6 0c1.13,0 2.17,0.46 2.91,1.21l0.03 0.03c0.73,0.74 1.18,1.76 1.18,2.88l0 3.1c0,0.28 -0.23,0.51 -0.51,0.51 -0.28,0 -0.51,-0.23 -0.51,-0.51l0 -3.1c0,-0.84 -0.34,-1.61 -0.89,-2.17l-0.03 -0.02c-0.56,-0.56 -1.34,-0.91 -2.19,-0.91l-4.6 0c-0.85,0 -1.63,0.35 -2.19,0.91 -0.56,0.56 -0.91,1.34 -0.91,2.19l0 3.1zm5.41 -16.34c1.11,0 2.11,0.45 2.83,1.17 0.72,0.72 1.17,1.73 1.17,2.83 0,1.11 -0.45,2.11 -1.17,2.83l-0.03 0.03c-0.72,0.71 -1.71,1.14 -2.8,1.14 -1.1,0 -2.1,-0.45 -2.83,-1.17l-0 -0c-0.73,-0.73 -1.17,-1.73 -1.17,-2.83 0,-1.1 0.45,-2.1 1.17,-2.83 0.72,-0.73 1.72,-1.17 2.83,-1.17zm2.11 1.89c-0.54,-0.54 -1.29,-0.88 -2.11,-0.88 -0.82,0 -1.57,0.33 -2.11,0.88l-0 0c-0.54,0.54 -0.87,1.29 -0.87,2.11 0,0.83 0.33,1.57 0.87,2.11l0 0c0.54,0.54 1.29,0.87 2.11,0.87 0.81,0 1.55,-0.32 2.09,-0.85l0.02 -0.03c0.54,-0.54 0.88,-1.29 0.88,-2.11 0,-0.82 -0.33,-1.57 -0.88,-2.11zm-17.97 14.45c0,0.28 -0.23,0.51 -0.51,0.51 -0.28,0 -0.51,-0.23 -0.51,-0.51l0 -0.58c0,-1.13 0.46,-2.17 1.21,-2.91 0.75,-0.75 1.78,-1.21 2.91,-1.21l4.6 0c0.28,0 0.51,0.23 0.51,0.51 0,0.28 -0.23,0.51 -0.51,0.51l-4.6 0c-0.85,0 -1.63,0.35 -2.19,0.91 -0.56,0.56 -0.91,1.34 -0.91,2.19l0 0.58zm5.41 -13.82c1.11,0 2.11,0.45 2.83,1.17 0.72,0.72 1.17,1.73 1.17,2.83 0,1.11 -0.45,2.11 -1.17,2.83l-0.03 0.03c-0.72,0.71 -1.71,1.14 -2.8,1.14 -1.1,0 -2.1,-0.45 -2.83,-1.17l-0 -0c-0.73,-0.73 -1.17,-1.73 -1.17,-2.83 0,-1.1 0.45,-2.1 1.17,-2.83 0.72,-0.73 1.72,-1.17 2.83,-1.17zm2.11 1.89c-0.54,-0.54 -1.29,-0.88 -2.11,-0.88 -0.82,0 -1.57,0.33 -2.11,0.88l-0 0c-0.54,0.54 -0.87,1.29 -0.87,2.11 0,0.83 0.33,1.57 0.87,2.11l0 0c0.54,0.54 1.29,0.87 2.11,0.87 0.81,0 1.55,-0.32 2.09,-0.85l0.02 -0.03c0.54,-0.54 0.88,-1.29 0.88,-2.11 0,-0.82 -0.33,-1.57 -0.88,-2.11zm25.21 11.93c0,0.28 -0.23,0.51 -0.51,0.51 -0.28,0 -0.51,-0.23 -0.51,-0.51l0 -0.58c0,-0.85 -0.35,-1.63 -0.91,-2.19 -0.56,-0.56 -1.34,-0.91 -2.19,-0.91l-4.6 0c-0.28,0 -0.51,-0.23 -0.51,-0.51 0,-0.28 0.23,-0.51 0.51,-0.51l4.6 0c1.13,0 2.17,0.46 2.91,1.21 0.75,0.75 1.21,1.78 1.21,2.91l0 0.58zm-6.42 -12.81c-0.82,0 -1.57,0.33 -2.11,0.88l-0.03 0.02c-0.52,0.54 -0.85,1.27 -0.85,2.09 0,0.83 0.33,1.57 0.87,2.11l0 0c0.54,0.54 1.29,0.87 2.11,0.87 0.83,0 1.57,-0.33 2.11,-0.87l0 -0c0.54,-0.54 0.88,-1.29 0.88,-2.11 0,-0.82 -0.33,-1.57 -0.88,-2.11 -0.54,-0.54 -1.29,-0.88 -2.11,-0.88zm-2.83 0.16c0.72,-0.72 1.73,-1.17 2.83,-1.17 1.11,0 2.11,0.45 2.83,1.17 0.72,0.72 1.17,1.73 1.17,2.83 0,1.11 -0.45,2.11 -1.17,2.83 -0.73,0.72 -1.73,1.17 -2.83,1.17 -1.1,0 -2.1,-0.45 -2.83,-1.17l-0 -0c-0.73,-0.73 -1.17,-1.73 -1.17,-2.83 0,-1.09 0.44,-2.08 1.14,-2.8l0.03 -0.03z"/>
 </g>
</svg>
