<?xml version="1.0" encoding="UTF-8"?>
<!DOCTYPE svg PUBLIC "-//W3C//DTD SVG 1.0//EN" "http://www.w3.org/TR/2001/REC-SVG-20010904/DTD/svg10.dtd">
<!-- Creator: CorelDRAW -->
<svg xmlns="http://www.w3.org/2000/svg" xml:space="preserve" width="0.808236in" height="0.808236in" version="1.0" style="shape-rendering:geometricPrecision; text-rendering:geometricPrecision; image-rendering:optimizeQuality; fill-rule:evenodd; clip-rule:evenodd"
viewBox="0 0 44.6 44.6"
 xmlns:xlink="http://www.w3.org/1999/xlink"
 xmlns:xodm="http://www.corel.com/coreldraw/odm/2003">
 <defs>
  <style type="text/css">
   <![CDATA[
    .fil0 {fill:currentColor;fill-rule:nonzero}
   ]]>
  </style>
 </defs>
 <g id="Layer_x0020_1">
  <metadata id="CorelCorpID_0Corel-Layer"/>
  <path class="fil0" d="M23.31 31.8l-17.87 0c-1.5,0 -2.86,-0.61 -3.85,-1.6l-0.03 -0.03c-0.97,-0.99 -1.57,-2.33 -1.57,-3.81l0 -20.9c0,-1.5 0.61,-2.86 1.6,-3.85l0 -0c0.99,-0.99 2.35,-1.6 3.85,-1.6l27.33 0c1.5,0 2.86,0.61 3.85,1.6 0.99,0.99 1.6,2.35 1.6,3.85l0 18.6c1.21,0.54 2.3,1.3 3.22,2.22 1.94,1.94 3.15,4.63 3.15,7.59 0,2.97 -1.2,5.65 -3.15,7.59 -1.94,1.94 -4.63,3.15 -7.59,3.15 -2.57,0 -4.93,-0.9 -6.78,-2.41 -0.11,-0.01 -0.22,-0.06 -0.31,-0.14 -0.09,-0.08 -0.14,-0.17 -0.17,-0.28 -0.11,-0.1 -0.22,-0.21 -0.33,-0.32 -1.94,-1.94 -3.15,-4.63 -3.15,-7.59 0,-0.7 0.07,-1.39 0.2,-2.06zm-17.87 -1.15l18.16 0c0.52,-1.68 1.45,-3.17 2.66,-4.39 1.94,-1.94 4.63,-3.15 7.59,-3.15 1.12,0 2.2,0.17 3.22,0.49l0 -16.14 -16.09 13.3c-0.55,0.45 -1.21,0.68 -1.88,0.68 -0.66,0 -1.33,-0.23 -1.88,-0.68l-16.09 -13.3 0 18.88c0,1.17 0.47,2.23 1.23,3.01l0.03 0.03c0.78,0.78 1.85,1.26 3.03,1.26zm-4.3 -25.2l0 0.54 16.82 13.9c0.34,0.28 0.74,0.42 1.15,0.42 0.4,0 0.81,-0.14 1.15,-0.42l16.82 -13.9 0 -0.54c0,-1.18 -0.48,-2.26 -1.26,-3.03l0 -0c-0.78,-0.78 -1.85,-1.26 -3.03,-1.26l-27.33 0c-1.18,0 -2.26,0.48 -3.03,1.26l-0 0c-0.78,0.78 -1.26,1.85 -1.26,3.03zm39.49 21.63c-1.74,-1.74 -4.13,-2.81 -6.78,-2.81 -2.65,0 -5.05,1.07 -6.78,2.81 -1.74,1.74 -2.81,4.13 -2.81,6.78 0,2.65 1.07,5.05 2.81,6.78l0.11 0.11c0.8,-0.78 1.73,-1.42 2.76,-1.89 1.19,-0.54 2.52,-0.84 3.91,-0.84 1.37,0 2.67,0.29 3.85,0.81 1.05,0.47 2.01,1.12 2.82,1.91l0.11 -0.11c1.74,-1.74 2.81,-4.13 2.81,-6.78 0,-2.65 -1.07,-5.05 -2.81,-6.78zm-6.78 16.37c2.18,0 4.19,-0.73 5.8,-1.95 -0.7,-0.67 -1.51,-1.22 -2.41,-1.61 -1.04,-0.46 -2.18,-0.71 -3.39,-0.71 -1.23,0 -2.39,0.26 -3.44,0.73 -0.88,0.4 -1.67,0.94 -2.36,1.59 1.61,1.22 3.62,1.95 5.8,1.95zm0 -16.11c1.3,0 2.49,0.53 3.34,1.38 0.86,0.86 1.38,2.04 1.38,3.34 0,1.3 -0.53,2.48 -1.39,3.34 -0.85,0.86 -2.04,1.39 -3.34,1.39 -1.3,0 -2.48,-0.53 -3.34,-1.38l-0 -0c-0.86,-0.86 -1.38,-2.04 -1.38,-3.34 0,-1.3 0.53,-2.49 1.38,-3.34l0.03 -0.03c0.85,-0.84 2.02,-1.35 3.31,-1.35zm2.53 2.2c-0.65,-0.65 -1.54,-1.05 -2.53,-1.05 -0.97,0 -1.86,0.39 -2.5,1.02l-0.03 0.03c-0.65,0.65 -1.05,1.54 -1.05,2.53 0,0.99 0.4,1.88 1.05,2.53l0 0c0.65,0.65 1.54,1.05 2.53,1.05 0.99,0 1.88,-0.4 2.53,-1.05l0 0c0.65,-0.65 1.05,-1.54 1.05,-2.53 0,-0.99 -0.4,-1.88 -1.05,-2.53z"/>
 </g>
</svg>
