<svg width="70" height="70" viewBox="0 0 70 70" fill="none" xmlns="http://www.w3.org/2000/svg">
<g clip-path="url(#clip0_1100_1795)">
<path fill-rule="evenodd" clip-rule="evenodd" d="M0 30.6228V38.0074C0 38.8469 0.940959 39.7833 1.77583 39.7833H4.23893V68.0812C4.23893 70.4429 8.33948 70.4429 8.33948 68.0812V39.7833H61.6605V67.8091C61.6605 70.7196 65.7611 70.2953 65.7611 68.0812V39.7833H68.2196C69.059 39.7833 69.9954 38.8423 69.9954 38.0074V30.6228C69.9954 29.7833 69.0544 28.8469 68.2196 28.8469H1.77583C0.936347 28.8469 0 29.7879 0 30.6228Z" fill="currentColor"/>
<path fill-rule="evenodd" clip-rule="evenodd" d="M20.6458 5.05996V24.7463H49.3543V5.05996C49.3543 2.5369 46.8174 0 44.2943 0H25.7011C23.1781 0 20.6412 2.5369 20.6412 5.05996H20.6458Z" fill="currentColor"/>
<path fill-rule="evenodd" clip-rule="evenodd" d="M16.5406 44.8432C16.5406 47.1402 18.7177 49.3543 21.0517 49.3543H32.9474V59.7463H27.8875C26.6467 59.7463 25.4797 62.0572 24.5803 63.4087C23.9207 64.3958 22.0111 66.8404 22.0111 67.9474C22.0111 69.0683 22.786 69.8524 23.7085 70H24.3358C24.917 69.9078 25.5028 69.5572 25.9502 68.8838C26.3561 68.2749 26.6882 67.7676 27.0941 67.1587L28.7869 64.6126C29.4972 63.5102 29.179 63.8469 32.9428 63.8469C32.9428 67.5462 32.3155 70 35.2675 70C36.107 70 37.0434 69.0591 37.0434 68.2242V63.8515C41.4299 63.8515 40.3967 63.4133 41.6928 65.3552C42.0803 65.9364 42.4262 66.4576 42.8413 67.0757C43.2565 67.6984 43.5839 68.1873 43.9899 68.8008C44.488 69.5572 45.0738 69.9124 45.6458 70H46.25C47.2094 69.8478 47.9889 69.0176 47.9889 68.2242C47.9889 66.9004 47.6707 66.7897 46.7851 65.4613L44.0498 61.3607C43.6255 60.7242 43.1042 59.7463 42.1079 59.7463H37.048V49.3543H48.9437C51.3607 49.3543 53.4548 46.9419 53.4548 45.1153V43.8838H16.5406V44.8432Z" fill="currentColor"/>
</g>
<defs>
<clipPath id="clip0_1100_1795">
<rect width="70" height="70" fill="white"/>
</clipPath>
</defs>
</svg>
