<svg width="70" height="70" viewBox="0 0 746.45 784.24" fill="none" xmlns="http://www.w3.org/2000/svg">
  <path fill="currentColor" d="M0.22 233.61l0 -46.06 133.15 0 23.03 92.13 74.13 0 0 -154.08c15.87,9.54 39.1,13.56 68.68,12.82l299.83 0 -0.77 141.26 147.87 0 -107.47 322.45 -416.94 0 -23.05 46.06 492.49 0 0 46.06 -51.15 0c2.33,6.86 3.59,14.21 3.59,21.85 0,37.51 -30.41,67.92 -67.92,67.92 -37.51,0 -67.92,-30.41 -67.92,-67.92 0,-7.65 1.26,-15 3.59,-21.85l-194.52 0c2.33,6.86 3.59,14.21 3.59,21.85 0,37.51 -30.41,67.92 -67.92,67.92 -37.51,0 -67.92,-30.41 -67.92,-67.92 0,-7.65 1.26,-15 3.59,-21.85l-64.01 0 58.89 -117.83 -85.7 -342.81 -97.17 0zm322.45 -49.13l184.25 0 0 49.13 -184.25 -0 0 -49.13zm-131.71 233.39l-23.03 -92.13 120.75 0 12.28 92.13 -110 0zm156.51 0l-12.28 -92.13 159.22 0 -12.28 92.13 -134.66 0zm181.17 0l12.28 -92.13 141.35 0 -30.72 92.13 -122.92 0zm-303.14 138.19l-23.03 -92.13 104.62 0 12.28 92.13 -93.87 0zm140.38 0l-12.28 -92.13 122.38 0 -12.28 92.13 -97.82 0zm144.33 0l12.28 -92.13 113.7 0 -30.72 92.13 -95.27 0zm88.83 -555.84l-322.45 0c-25.33,0 -46.06,20.73 -46.06,46.06l0 0c0,25.34 20.73,46.06 46.06,46.06l322.45 0 0 -92.13z"/>
</svg>
