<svg width="70" height="70" viewBox="0 0 70 70" fill="none" xmlns="http://www.w3.org/2000/svg">
<g clip-path="url(#clip0_1100_1797)">
<path fill-rule="evenodd" clip-rule="evenodd" d="M4.23822 63.4347C4.23822 67.2207 6.99562 69.9999 9.97915 69.9999H67.8116V65.7617C67.0821 65.5939 66.8925 65.6085 66.4037 65.1198C65.4554 64.1715 65.3533 62.2311 67.8116 61.6548V57.5552H32.9502V61.6548H28.8506V57.5552H10.1178C7.06127 57.5552 4.23822 60.3636 4.23822 63.4347Z" fill="currentColor"/>
<path fill-rule="evenodd" clip-rule="evenodd" d="M6.28802 12.3062V12.5761C7.17068 12.649 34.4748 24.7436 35 24.7436C35.248 24.7436 41.3829 22.0592 42.1123 21.7382L56.4683 15.5888C57.0738 15.3262 63.194 12.6198 63.7119 12.5761V12.3062C63.1284 12.2551 60.8159 11.139 60.123 10.8399L49.3414 6.17132C46.8393 5.14277 35.4304 0 35.0073 0L9.98644 10.8035C9.40286 11.088 8.81929 11.3068 8.17006 11.584C7.68131 11.7955 6.79136 12.2624 6.29532 12.3062H6.28802Z" fill="currentColor"/>
<path fill-rule="evenodd" clip-rule="evenodd" d="M32.9502 53.4556H59.8823C63.1576 53.4556 65.7618 50.6763 65.7618 47.0289C65.7618 43.9506 62.9606 41.1494 59.8823 41.1494H32.9502V53.4556Z" fill="currentColor"/>
<path fill-rule="evenodd" clip-rule="evenodd" d="M16.5444 30.0761C17.2009 30.4262 18.0908 30.7545 18.8276 31.0681L35 37.9398L48.7724 32.0894C49.5967 31.732 50.2386 31.4621 51.0775 31.1119L53.4629 30.0761V21.3297C52.6824 21.5121 51.8143 21.9789 51.1213 22.2707L35.0073 29.1278C34.3216 29.1278 18.1273 21.7017 16.5517 21.337V30.0834L16.5444 30.0761Z" fill="currentColor"/>
<path fill-rule="evenodd" clip-rule="evenodd" d="M2.18842 45.2564C2.91789 45.4241 3.10755 45.4096 3.59629 45.8983C4.54461 46.8466 4.64673 48.787 2.18842 49.3633V53.4629H28.8506V41.1567H2.18842V45.2564Z" fill="currentColor"/>
<path fill-rule="evenodd" clip-rule="evenodd" d="M57.5625 19.4112V37.0498H61.6621V17.7699C61.2609 17.8647 61.0275 18.0179 60.6846 18.1638C59.9989 18.4483 58.044 19.3747 57.5625 19.4112Z" fill="currentColor"/>
</g>
<defs>
<clipPath id="clip0_1100_1797">
<rect width="70" height="70" fill="white"/>
</clipPath>
</defs>
</svg>
