<svg width="71" height="70" viewBox="0 0 71 70" fill="none" xmlns="http://www.w3.org/2000/svg">
<g clip-path="url(#clip0_1100_1789)">
<path fill-rule="evenodd" clip-rule="evenodd" d="M37.4415 59.0614C37.8214 58.961 39.2723 57.544 39.8343 57.0459C40.2338 56.6926 40.6469 56.4417 41.1051 56.1115C43.1396 54.6501 46.2746 53.2447 48.7947 52.4821C52.3507 51.4068 53.1222 51.5187 56.359 51.0535C57.6788 50.8643 59.3295 51.0284 60.571 50.8315C61.6421 50.6616 62.6799 49.6809 62.6799 48.399V10.6643C62.6799 9.34963 61.4874 8.20288 60.1833 8.20288C54.442 8.20288 48.7791 9.57744 45.1467 11.6991C44.0972 12.313 43.3061 12.7551 42.3877 13.4907C40.3454 15.1297 40.4844 15.0641 38.9316 16.9193C37.0616 19.153 37.4395 19.541 37.4395 22.4214C37.4395 34.6341 37.4395 46.8487 37.4395 59.0614H37.4415Z" fill="currentColor"/>
<path fill-rule="evenodd" clip-rule="evenodd" d="M8.32013 10.6644V48.399C8.32013 51.7948 12.769 50.6384 16.6207 51.289C21.4573 52.1057 25.6594 53.1404 29.8126 56.0556C30.6683 56.656 31.5397 57.268 32.2759 58.0016C32.6715 58.3954 32.9789 58.9109 33.5566 59.0615C33.5566 46.2657 33.4547 33.1187 33.5585 20.3693C33.5761 18.3306 32.4483 17.4773 31.1206 15.8016C28.5477 12.5563 23.2117 10.1566 19.2485 9.18749C16.9144 8.61604 13.799 8.20483 10.9558 8.20483C9.53221 8.20483 8.32013 9.27822 8.32013 10.6663V10.6644Z" fill="currentColor"/>
<path fill-rule="evenodd" clip-rule="evenodd" d="M5.00958e-06 19.2765V59.3356C5.00958e-06 60.8009 1.39028 61.797 2.3576 61.797L8.83315 60.6619C14.455 59.7429 22.7555 59.7255 28.3029 60.826C28.9256 60.9495 29.2487 61.1136 29.9516 61.1136C29.6285 60.6773 28.0934 59.5479 27.594 59.2004C24.2985 56.8973 18.3516 55.0208 14.2807 54.8277C11.3141 54.6868 9.07792 54.9474 6.92984 53.3257C3.69109 50.8778 4.43714 46.9298 4.43714 42.6575V18.5951C4.44301 16.817 4.71128 16.817 3.32688 16.817C1.55281 16.817 -0.00195312 17.5738 -0.00195312 19.2785L5.00958e-06 19.2765Z" fill="currentColor"/>
<path fill-rule="evenodd" clip-rule="evenodd" d="M41.0464 61.1116C41.6828 61.1116 46.7916 60.0035 49.3626 60.0151L53.0282 59.9591C53.6333 60.0518 54.2756 60.0189 54.9119 60.0189C57.246 60.0151 59.7662 60.3085 61.9279 60.6213C63.095 60.7892 64.0839 60.9649 65.2548 61.1695C66.9134 61.4591 68.9126 62.409 70.2637 61.0711C70.6358 60.7043 70.998 60.0286 70.998 59.3336V19.2746C70.998 17.0718 68.7736 16.8131 66.976 16.8131C66.3435 16.8131 66.555 17.7823 66.5589 18.4522V42.5146C66.5589 45.2425 66.9192 48.7426 66.0459 50.76C64.7046 53.8624 62.1786 54.6964 58.9281 54.679C55.1038 54.6597 49.5604 55.9474 46.3118 57.5536C45.0057 58.1984 41.7709 60.0363 41.0425 61.1078L41.0464 61.1116Z" fill="currentColor"/>
</g>
<defs>
<clipPath id="clip0_1100_1789">
<rect width="71" height="70" fill="white"/>
</clipPath>
</defs>
</svg>
