<svg width="70" height="70" viewBox="0 0 82.34 82.34" fill="none" xmlns="http://www.w3.org/2000/svg">
  <path fill="currentColor" d="M-0 76.87l5.66 0 0 -71.41 -5.66 0 0 -5.46 82.34 0 0 5.46 -5.66 0 0 71.41 5.66 0 0 5.46 -82.34 0 0 -5.46zm25.23 -5.46l46.58 0 0 -60.48 -46.58 0 0 60.48zm-14.71 0l10.91 0 0 -60.48 -10.91 0 0 60.48zm31.3 -6.23l13.39 0c3.12,0 5.66,-2.55 5.66,-5.66l0 -24.7c0,-3.12 -2.55,-5.66 -5.66,-5.66l-13.39 0c-3.12,0 -5.66,2.55 -5.66,5.66l0 24.7c0,3.12 2.55,5.66 5.66,5.66zm9.45 -25.1l0 0c0.39,0.39 0.39,1.03 0,1.42l-1.73 1.73c-0.39,0.39 -1.03,0.39 -1.42,0l0 0c-0.39,-0.39 -0.39,-1.03 0,-1.42l1.73 -1.73c0.39,-0.39 1.03,-0.39 1.42,0zm2.17 2.17l0 0c0.39,0.39 0.39,1.03 0,1.42l-8.43 8.43c-0.39,0.39 -1.03,0.39 -1.42,0l0 0c-0.39,-0.39 -0.39,-1.03 0,-1.42l8.43 -8.43c0.39,-0.39 1.03,-0.39 1.42,0zm-1.26 5.59l0 0c0.39,0.39 0.39,1.03 0,1.42l-5 5c-0.39,0.39 -1.03,0.39 -1.42,0l0 0c-0.39,-0.39 -0.39,-1.03 0,-1.42l5 -5c0.39,-0.39 1.03,-0.39 1.42,0zm-16.02 -23.22l24.72 0 0 -7.46 -24.72 0 0 7.46zm-20.18 14.11c1.35,0 2.44,1.09 2.44,2.44 0,1.35 -1.09,2.44 -2.44,2.44 -1.35,0 -2.44,-1.09 -2.44,-2.44 0,-1.35 1.09,-2.44 2.44,-2.44z"/>
</svg>
