<svg xmlns="http://www.w3.org/2000/svg" viewBox="0 0 64 64" width="300" height="300" version="1.1" xmlns:xlink="http://www.w3.org/1999/xlink" xmlns:svgjs="http://svgjs.dev/svgjs"><g width="100%" height="100%" transform="matrix(1,0,0,1,0,0)"><g data-name="Layer 23" id="Layer_23"><path d="M12.04,9V19.61a.9953.9953,0,0,0,.53.88,1.0079,1.0079,0,0,0,1.02-.04l2.52-1.65,2.51,1.65a1.0953,1.0953,0,0,0,.55.16,1.0343,1.0343,0,0,0,.48-.12,1.0056,1.0056,0,0,0,.52-.88V9Z" fill="currentColor" fill-opacity="1" data-original-color="#000000ff" stroke="none" stroke-opacity="1"/><path d="M43,16.17a30.57,30.57,0,0,1,3-2.14V7.06A5.0659,5.0659,0,0,0,40.94,2H7.06A5.0659,5.0659,0,0,0,2,7.06V56.94A5.0659,5.0659,0,0,0,7.06,62H40.94A5.0659,5.0659,0,0,0,46,56.94V48.71a8.7917,8.7917,0,0,0-1.27.74,3.0009,3.0009,0,0,1-3.42.03,3.2841,3.2841,0,0,0-.31-.2v3.51A1.2078,1.2078,0,0,1,39.79,54H8.21A1.2078,1.2078,0,0,1,7,52.79V8.21A1.2078,1.2078,0,0,1,8.21,7H39.79A1.2078,1.2078,0,0,1,41,8.21v6.47C41.76,15.2,42.43,15.71,43,16.17ZM24,56.56a1.5,1.5,0,1,1-1.5,1.5A1.5044,1.5044,0,0,1,24,56.56Z" fill="currentColor" fill-opacity="1" data-original-color="#000000ff" stroke="none" stroke-opacity="1"/><path d="M61.09,16.36c-.06,0-.27-.02-.59-.04V13a1.0029,1.0029,0,0,0-1-1c-8.36,0-14.46,4.92-16.5,6.81C40.96,16.92,34.86,12,26.5,12a1.0029,1.0029,0,0,0-1,1v3.32c-.32.02-.53.04-.59.04a1.0087,1.0087,0,0,0-.91,1V43.75a1.0291,1.0291,0,0,0,.32.74,1.0788,1.0788,0,0,0,.77.26c.11-.01,11.64-.95,17.33,3.07a1.0244,1.0244,0,0,0,1.16,0c5.68-4.01,17.22-3.08,17.34-3.07a1.07,1.07,0,0,0,.76-.26,1.0291,1.0291,0,0,0,.32-.74V17.36A1.0087,1.0087,0,0,0,61.09,16.36ZM42,45.24c-4.3-2.21-10.18-2.6-13.8-2.6-.89,0-1.64.02-2.2.05V18.3c2.77-.13,11.17-.21,16,2.86Zm18-2.55c-2.86-.13-10.65-.2-16,2.55V21.16c4.83-3.07,13.23-2.98,16-2.86Z" fill="currentColor" fill-opacity="1" data-original-color="#000000ff" stroke="none" stroke-opacity="1"/></g></g></svg>