<svg width="71" height="71" viewBox="0 0 71 71" fill="none" xmlns="http://www.w3.org/2000/svg">
<g clip-path="url(#clip0_1100_1796)">
<path fill-rule="evenodd" clip-rule="evenodd" d="M18.1656 53.1065V61.5657C18.1656 62.0669 18.2576 62.1707 18.6277 62.3509C20.2921 63.1615 28.5045 64.7398 30.6702 65.0061C32.2896 65.2058 36.5916 65.6092 38.1914 65.3684C39.0393 65.2391 39.9068 65.3723 40.7605 65.3018C42.3211 65.1745 44.1363 64.8925 45.5207 64.6536C47.5337 64.309 49.9618 63.7079 51.8436 62.9344C52.3546 62.7229 53.2632 62.2471 53.8036 62.1218C53.8036 59.2257 54.021 50.8958 53.4923 48.4266C52.9558 45.9123 51.8925 44.1011 50.2947 42.1938L47.7295 40.0438C45.8987 38.8905 43.4236 37.8546 40.4903 37.8546H31.477C25.8983 37.8546 20.9696 41.5339 19.0154 46.7485C18.3555 48.5108 18.1636 50.7137 18.1636 53.1085L18.1656 53.1065Z" fill="currentColor"/>
<path fill-rule="evenodd" clip-rule="evenodd" d="M5.00958e-06 39.7951V51.5831L7.43308 53.4394C9.43821 53.9015 13.6462 54.4948 15.808 54.4948C15.808 47.7902 15.998 45.6989 19.8868 40.6861C20.1296 40.3747 20.4057 40.0829 20.7014 39.8362C22.5714 38.2775 24.5061 36.7796 27.0399 36.1902C26.8382 35.4402 23.2803 32.7204 23.1569 27.1769H12.4792C6.1133 27.1769 -0.00195312 33.4938 -0.00195312 39.7971L5.00958e-06 39.7951Z" fill="currentColor"/>
<path fill-rule="evenodd" clip-rule="evenodd" d="M48.8124 27.7291C48.8124 29.2858 48.0702 31.4437 47.522 32.5402C47.0892 33.4038 46.3177 34.5845 45.6598 35.2542C45.3132 35.6067 45.0606 35.6987 44.9294 36.1882C46.0122 36.2783 48.4814 37.6529 49.2843 38.211C51.7829 39.9459 53.8702 42.372 55.0138 45.2387C56.4413 48.8202 56.1612 50.8527 56.1612 54.6299C57.0424 54.6299 57.3165 54.4909 58.2427 54.4929C61.2015 54.5007 66.6647 53.1711 69.594 51.9786C69.9465 51.8357 70.998 51.4969 70.998 51.025V39.7932C70.998 36.48 69.2475 33.3489 67.1895 31.1206C66.9427 30.8523 66.6784 30.6839 66.3886 30.3961C64.6478 28.6729 61.0331 27.173 58.5188 27.173H48.8124V27.7271V27.7291Z" fill="currentColor"/>
<path fill-rule="evenodd" clip-rule="evenodd" d="M46.4548 27.175C46.4548 22.9101 44.3126 19.1074 40.5863 17.3725C36.2686 15.3615 30.7447 16.4542 27.8701 20.2373C27.3865 20.8717 26.7344 21.8195 26.4035 22.6536C23.8951 28.9784 27.4942 35.5107 33.6408 36.9382C35.8476 37.4512 38.352 37.228 40.1242 36.3743C41.6339 35.6458 41.2011 35.9259 42.5542 34.9213C43.3355 34.3417 43.8701 33.7504 44.4555 32.9397C45.4562 31.5533 46.4548 29.4797 46.4548 27.173V27.175Z" fill="currentColor"/>
<path fill-rule="evenodd" clip-rule="evenodd" d="M7.34888 15.526C7.34888 18.1382 7.73659 20.0728 9.30702 22.166C9.50283 22.4284 9.6634 22.6047 9.86313 22.8592C10.0687 23.1216 10.1706 23.3057 10.4388 23.5328L11.8232 24.6431C12.2755 24.9662 12.8708 25.3225 13.4093 25.5536C18.0188 27.5254 23.0394 25.7377 23.4095 24.5158C23.5055 24.1966 23.5289 23.8539 23.6308 23.4897C24.0596 21.9585 24.6784 20.4644 25.632 19.2523C26.0902 18.6708 27.4922 16.9515 28.1482 16.7772C28.1482 13.7441 27.6117 11.1926 25.4812 9.04458C22.3325 5.86848 18.1382 4.62507 13.9419 6.31689C10.29 7.78941 7.34692 11.3806 7.34692 15.5299L7.34888 15.526Z" fill="currentColor"/>
<path fill-rule="evenodd" clip-rule="evenodd" d="M42.8499 15.526C42.8499 16.0684 42.9987 16.0586 43.4275 16.3347L45.5051 18.1401C45.9496 18.6962 46.2316 19.0017 46.6506 19.6303C49.0532 23.2509 48.2954 25.115 49.1257 25.6143L50.6706 26.1489C52.946 26.8029 55.3839 26.4661 57.4908 25.5928C60.7394 24.2436 63.6492 20.3705 63.6492 16.7753C63.6492 13.1626 63.0382 11.1144 60.4946 8.55899C57.5124 5.56304 53.085 4.78762 49.1472 6.43245C45.6754 7.88147 42.8499 11.6333 42.8499 15.528V15.526Z" fill="currentColor"/>
</g>
<defs>
<clipPath id="clip0_1100_1796">
<rect width="71" height="71" fill="white"/>
</clipPath>
</defs>
</svg>
