<svg width="70" height="70" viewBox="0 0 70 70" fill="none" xmlns="http://www.w3.org/2000/svg">
<g clip-path="url(#clip0_1100_1798)">
<path fill-rule="evenodd" clip-rule="evenodd" d="M12.7168 27.0987C12.7168 26.1577 13.5793 25.1845 14.4926 25.1845H38.69C40.964 25.1845 41.1347 29.1513 38.4179 29.1513H14.7648C13.5932 29.1513 12.7122 28.2149 12.7122 27.0987H12.7168ZM12.7168 17.5277C12.7168 16.5867 13.5793 15.6135 14.4926 15.6135H38.69C40.964 15.6135 41.1347 19.5803 38.4179 19.5803H14.7648C13.5932 19.5803 12.7122 18.6439 12.7122 17.5277H12.7168ZM0 11.7851V48.0166C0 49.1052 1.59133 50.7011 3.63469 49.1882L7.21863 46.619C8.8607 45.4982 10.3598 44.322 12.0018 43.2011C12.8183 42.643 13.4917 42.1172 14.3266 41.559C15.3506 40.8764 15.821 40.5766 17.2601 40.3921C18.6577 40.2122 39.2297 40.3552 41.6974 40.3598C45.1661 40.3598 48.0351 39.1836 49.5849 36.0793C50.0231 35.2029 50.4474 34.0913 50.4474 32.8413V6.18081C50.4474 5.17527 49.4234 4.2666 47.9843 4.2666H8.61162C7.28782 4.2666 6.11624 4.4511 5.17528 4.79243C2.39391 5.79797 0 8.7869 0 11.7851Z" fill="currentColor"/>
<path fill-rule="evenodd" clip-rule="evenodd" d="M54.5526 32.0203C54.5526 37.3524 51.3607 42.0987 46.536 43.6946C44.6771 44.3081 43.1504 44.4649 40.7426 44.4649H19.5526C19.5526 48.3856 19.0222 51.8173 22.4816 54.5249C24.3496 55.9871 26.0286 56.3607 29.262 56.3561C35.0507 56.3515 40.8395 56.3561 46.6236 56.3561C55.5812 56.3561 53.1734 55.7242 59.8847 60.4566C60.7057 61.0378 61.5268 61.6513 62.3478 62.2325L66.1947 64.9446C68.9114 66.9649 70 64.5111 70 63.8699V27.7768C70 23.8238 66.1762 20.2583 62.7537 20.2583H54.5526V32.0157V32.0203Z" fill="currentColor"/>
</g>
<defs>
<clipPath id="clip0_1100_1798">
<rect width="70" height="70" fill="white"/>
</clipPath>
</defs>
</svg>
