<svg width="70" height="70" viewBox="0 0 70 70" fill="none" xmlns="http://www.w3.org/2000/svg">
<g clip-path="url(#clip0_1100_1787)">
<path fill-rule="evenodd" clip-rule="evenodd" d="M59.3351 49.4946H42.9293C40.1865 49.4946 40.1938 45.2564 43.0679 45.2564H59.0652C61.9321 45.2564 61.7643 49.4946 59.3424 49.4946H59.3351ZM8.74635 47.0363C8.74635 43.2941 10.074 40.3908 13.1159 38.8297C13.8381 38.4577 15.1584 38.0127 16.2672 38.0127H27.4792C30.5138 38.0127 33.3952 40.3543 34.4383 43.0898C34.8249 44.1111 35.5033 47.5834 34.4967 48.7214C34.1976 49.0642 33.6651 49.5019 33.0888 49.5019H10.6649C9.65819 49.5019 8.75365 48.4806 8.75365 47.0436L8.74635 47.0363ZM59.0579 37.8741H43.0606C40.1938 37.8741 40.1719 33.6359 42.9221 33.6359H59.3278C61.6549 33.6359 62.0561 37.8741 59.0506 37.8741H59.0579ZM14.6259 27.895C14.6259 25.8962 15.2824 24.1309 16.5736 22.7303C20.644 18.3024 29.1205 20.6586 29.1205 27.895C29.1205 30.7399 27.1436 33.3149 24.8822 34.3216C22.1248 35.5471 18.9225 35 16.8508 32.921C15.7201 31.7831 14.6332 30.098 14.6332 27.895H14.6259ZM58.6494 26.2537H43.1992C40.1209 26.2537 40.1209 21.8768 43.1992 21.8768H58.6494C62.0707 21.8768 62.0707 26.2537 58.6494 26.2537ZM0 16.2745V53.7328C0 57.5188 3.73489 61.2537 7.52084 61.2537H62.6178C66.1922 61.2537 70 57.4385 70 53.8714V16.2745C70 12.4886 66.2651 8.75366 62.4792 8.75366H7.52084C3.73489 8.75366 0 12.4813 0 16.2745Z" fill="currentColor"/>
</g>
<defs>
<clipPath id="clip0_1100_1787">
<rect width="70" height="70" fill="white"/>
</clipPath>
</defs>
</svg>
