<svg width="70" height="70" viewBox="0 0 70 70" fill="none" xmlns="http://www.w3.org/2000/svg">
<g clip-path="url(#clip0_1100_1788)">
<path fill-rule="evenodd" clip-rule="evenodd" d="M14.1375 4.31734C14.1375 6.42989 15.4474 21.4068 15.7518 24.2989C15.821 24.9539 15.8764 25.7011 15.9133 26.2223C16.0101 27.4769 16.1255 28.6624 16.2131 29.797L16.5221 33.5101H53.4594L55.8441 4.31734C55.8441 1.92804 53.7546 0 51.0793 0H18.9114C17.4723 0 16.416 0.498155 15.6042 1.16236C14.8247 1.80351 14.1421 3.11347 14.1421 4.31734H14.1375Z" fill="currentColor"/>
<path fill-rule="evenodd" clip-rule="evenodd" d="M15.1799 46.0193V69.5526C15.1799 69.8939 15.286 70 15.6273 70H19.9447L20.5674 63.773C20.6688 62.8459 20.7795 61.7481 20.9225 60.7057C21.0609 59.6909 21.2085 58.547 21.2823 57.643C21.988 57.9843 38.81 57.7906 41.9834 57.7906C44.0452 57.7906 47.0849 58.0489 48.833 57.643L49.7924 66.9603C49.9354 68.012 49.9585 69.0775 50.1753 70.0046H54.7925V46.024C54.7925 45.6826 54.6864 45.5765 54.345 45.5765H47.4954C47.4954 47.6845 48.3902 53.0765 48.3902 54.6633H21.5821L22.5046 46.3192C22.5461 45.7979 22.703 45.5765 22.1771 45.5765H15.6227C15.2814 45.5765 15.1753 45.6826 15.1753 46.024L15.1799 46.0193Z" fill="currentColor"/>
<path fill-rule="evenodd" clip-rule="evenodd" d="M10.7103 39.3174C10.7103 41.4114 12.0941 42.5923 14.1374 42.5923H55.8395C56.7205 42.5923 57.6153 42.3293 58.1135 41.8912C60.3967 39.8847 59.1882 36.3376 55.8395 36.3376H14.4373C12.4077 36.3376 10.7149 37.3847 10.7149 39.3174H10.7103Z" fill="currentColor"/>
</g>
<defs>
<clipPath id="clip0_1100_1788">
<rect width="70" height="70" fill="white"/>
</clipPath>
</defs>
</svg>
