<svg id="Capa_1" fill="currentColor" enable-background="new 0 0 512 512" height="512" viewBox="0 0 512 512" width="512" xmlns="http://www.w3.org/2000/svg"><g><path d="m497 211h-51.42c-4.79-20.34-12.72-39.52-23.69-57.25l35.64-35.64c5.874-5.873 5.828-15.382 0-21.21l-42.43-42.43c-5.86-5.85-15.36-5.85-21.21 0l-35.64 35.64c-17.73-10.97-36.9-18.9-57.25-23.69v-51.42c0-8.28-6.72-15-15-15h-60c-8.28 0-15 6.72-15 15v51.42c-20.35 4.79-39.52 12.72-57.25 23.69l-35.64-35.64c-5.85-5.85-15.35-5.85-21.21 0l-42.43 42.43c-5.828 5.828-5.874 15.336 0 21.21l35.64 35.64c-10.97 17.73-18.9 36.91-23.69 57.25h-51.42c-8.28 0-15 6.72-15 15v60c0 8.28 6.72 15 15 15h51.42c4.79 20.34 12.72 39.52 23.69 57.25l-35.64 35.63c-5.852 5.873-5.851 15.349 0 21.22l42.43 42.42c5.826 5.847 15.348 5.883 21.21 0l35.64-35.63c17.73 10.97 36.9 18.9 57.25 23.69v51.42c0 8.28 6.72 15 15 15h60c8.28 0 15-6.72 15-15v-51.42c20.35-4.79 39.52-12.72 57.25-23.69l35.64 35.63c5.873 5.894 15.394 5.836 21.21 0l42.43-42.42c5.852-5.873 5.851-15.349 0-21.22l-35.64-35.63c10.97-17.73 18.9-36.91 23.69-57.25h51.42c8.28 0 15-6.72 15-15v-60c0-8.28-6.72-15-15-15zm-241 150c-57.9 0-105-47.1-105-105s47.1-105 105-105 105 47.1 105 105-47.1 105-105 105z"/></g></svg>